<?xml version="1.0" encoding="utf-8" standalone="no"?>
<!DOCTYPE svg PUBLIC "-//W3C//DTD SVG 1.1//EN"
  "http://www.w3.org/Graphics/SVG/1.1/DTD/svg11.dtd">
<svg xmlns:xlink="http://www.w3.org/1999/xlink" width="1072.8pt" height="494.619321pt" viewBox="0 0 1072.8 494.619321" xmlns="http://www.w3.org/2000/svg" version="1.1">
 <metadata>
  <rdf:RDF xmlns:dc="http://purl.org/dc/elements/1.1/" xmlns:cc="http://creativecommons.org/ns#" xmlns:rdf="http://www.w3.org/1999/02/22-rdf-syntax-ns#">
   <cc:Work>
    <dc:type rdf:resource="http://purl.org/dc/dcmitype/StillImage"/>
    <dc:date>2026-09-03T20:54:00.434104</dc:date>
    <dc:format>image/svg+xml</dc:format>
    <dc:creator>
     <cc:Agent>
      <dc:title>Matplotlib v3.10.0, https://matplotlib.org/</dc:title>
     </cc:Agent>
    </dc:creator>
   </cc:Work>
  </rdf:RDF>
 </metadata>
 <defs>
  <style type="text/css">*{stroke-linejoin: round; stroke-linecap: butt}</style>
 </defs>
 <g id="figure_1">
  <g id="patch_1">
   <path d="M 0 494.619321 
L 1072.8 494.619321 
L 1072.8 0 
L 0 0 
z
" style="fill: #ffffff"/>
  </g>
  <g id="axes_1">
   <g id="patch_2">
    <path d="M 155.543072 89.336902 
Q 214.982632 103.534691 272.899773 117.368832 
" clip-path="url(#p6c5cd9122b)" style="fill: none; stroke: #33507a; stroke-width: 1.4; stroke-linecap: round"/>
    <path d="M 267.76092 113.056966 
L 272.899773 117.368832 
L 266.366968 118.892795 
z
" clip-path="url(#p6c5cd9122b)" style="fill: #33507a; stroke: #33507a; stroke-width: 1.4; stroke-linecap: round"/>
   </g>
   <g id="patch_3">
    <path d="M 155.543072 155.706334 
Q 214.982632 141.508546 272.899773 127.674404 
" clip-path="url(#p6c5cd9122b)" style="fill: none; stroke: #33507a; stroke-width: 1.4; stroke-linecap: round"/>
    <path d="M 266.366968 126.150441 
L 272.899773 127.674404 
L 267.76092 131.98627 
z
" clip-path="url(#p6c5cd9122b)" style="fill: #33507a; stroke: #33507a; stroke-width: 1.4; stroke-linecap: round"/>
   </g>
   <g id="patch_4">
    <path d="M 155.543072 317.183266 
Q 214.982632 331.381054 272.899773 345.215196 
" clip-path="url(#p6c5cd9122b)" style="fill: none; stroke: #33507a; stroke-width: 1.4; stroke-linecap: round"/>
    <path d="M 267.76092 340.90333 
L 272.899773 345.215196 
L 266.366968 346.739159 
z
" clip-path="url(#p6c5cd9122b)" style="fill: #33507a; stroke: #33507a; stroke-width: 1.4; stroke-linecap: round"/>
   </g>
   <g id="patch_5">
    <path d="M 155.543072 383.552698 
Q 214.982632 369.354909 272.899773 355.520768 
" clip-path="url(#p6c5cd9122b)" style="fill: none; stroke: #33507a; stroke-width: 1.4; stroke-linecap: round"/>
    <path d="M 266.366968 353.996805 
L 272.899773 355.520768 
L 267.76092 359.832634 
z
" clip-path="url(#p6c5cd9122b)" style="fill: #33507a; stroke: #33507a; stroke-width: 1.4; stroke-linecap: round"/>
   </g>
   <g id="patch_6">
    <path d="M 467.944011 118.199261 
Q 519.12014 169.990324 569.196102 220.667999 
" clip-path="url(#p6c5cd9122b)" style="fill: none; stroke: #33507a; stroke-width: 1.4; stroke-linecap: round"/>
    <path d="M 567.112825 214.291483 
L 569.196102 220.667999 
L 562.844923 218.508711 
z
" clip-path="url(#p6c5cd9122b)" style="fill: #33507a; stroke: #33507a; stroke-width: 1.4; stroke-linecap: round"/>
   </g>
   <g id="patch_7">
    <path d="M 599.628998 348.719659 
Q 650.452458 299.734749 700.148924 251.836064 
" clip-path="url(#p6c5cd9122b)" style="fill: none; stroke: #33507a; stroke-width: 1.4; stroke-linecap: round"/>
    <path d="M 693.746972 253.839816 
L 700.148924 251.836064 
L 697.910754 258.159876 
z
" clip-path="url(#p6c5cd9122b)" style="fill: #33507a; stroke: #33507a; stroke-width: 1.4; stroke-linecap: round"/>
   </g>
   <g id="patch_8">
    <path d="M 311.227519 134.528262 
Q 373.962375 179.482979 435.42492 223.52598 
" clip-path="url(#p6c5cd9122b)" style="fill: none; stroke: #33507a; stroke-width: 1.4; stroke-linecap: round"/>
    <path d="M 432.295245 217.592588 
L 435.42492 223.52598 
L 428.800402 222.469685 
z
" clip-path="url(#p6c5cd9122b)" style="fill: #33507a; stroke: #33507a; stroke-width: 1.4; stroke-linecap: round"/>
   </g>
   <g id="patch_9">
    <path d="M 311.227519 338.361338 
Q 373.962375 293.406621 435.42492 249.36362 
" clip-path="url(#p6c5cd9122b)" style="fill: none; stroke: #33507a; stroke-width: 1.4; stroke-linecap: round"/>
    <path d="M 428.800402 250.419915 
L 435.42492 249.36362 
L 432.295245 255.297012 
z
" clip-path="url(#p6c5cd9122b)" style="fill: #33507a; stroke: #33507a; stroke-width: 1.4; stroke-linecap: round"/>
   </g>
   <g id="patch_10">
    <path d="M 474.066144 236.4448 
Q 519.118561 236.4448 562.60573 236.4448 
" clip-path="url(#p6c5cd9122b)" style="fill: none; stroke: #33507a; stroke-width: 1.4; stroke-linecap: round"/>
    <path d="M 556.60573 233.4448 
L 562.60573 236.4448 
L 556.60573 239.4448 
z
" clip-path="url(#p6c5cd9122b)" style="fill: #33507a; stroke: #33507a; stroke-width: 1.4; stroke-linecap: round"/>
   </g>
   <g id="patch_11">
    <path d="M 605.398433 236.4448 
Q 650.45085 236.4448 693.938019 236.4448 
" clip-path="url(#p6c5cd9122b)" style="fill: none; stroke: #33507a; stroke-width: 1.4; stroke-linecap: round"/>
    <path d="M 687.938019 233.4448 
L 693.938019 236.4448 
L 687.938019 239.4448 
z
" clip-path="url(#p6c5cd9122b)" style="fill: #33507a; stroke: #33507a; stroke-width: 1.4; stroke-linecap: round"/>
   </g>
   <g id="patch_12">
    <path d="M 736.734096 236.4448 
Q 774.870679 236.4448 811.442013 236.4448 
" clip-path="url(#p6c5cd9122b)" style="fill: none; stroke: #33507a; stroke-width: 1.4; stroke-linecap: round"/>
    <path d="M 805.442013 233.4448 
L 811.442013 236.4448 
L 805.442013 239.4448 
z
" clip-path="url(#p6c5cd9122b)" style="fill: #33507a; stroke: #33507a; stroke-width: 1.4; stroke-linecap: round"/>
   </g>
   <g id="patch_13">
    <path d="M 854.240246 236.4448 
Q 885.465847 236.4448 915.126201 236.4448 
" clip-path="url(#p6c5cd9122b)" style="fill: none; stroke: #33507a; stroke-width: 1.4; stroke-linecap: round"/>
    <path d="M 909.126201 233.4448 
L 915.126201 236.4448 
L 909.126201 239.4448 
z
" clip-path="url(#p6c5cd9122b)" style="fill: #33507a; stroke: #33507a; stroke-width: 1.4; stroke-linecap: round"/>
   </g>
   <g id="patch_14">
    <path d="M 598.270305 220.848505 
Q 650.451694 160.496047 701.755594 101.158483 
" clip-path="url(#p6c5cd9122b)" style="fill: none; stroke-dasharray: 4.44,1.92; stroke-dashoffset: 0; stroke: #8a8a8a; stroke-width: 1.2; stroke-linecap: round"/>
    <path d="M 695.561967 103.735107 
L 701.755594 101.158483 
L 700.100717 107.659359 
z
" clip-path="url(#p6c5cd9122b)" style="fill: #8a8a8a; stroke-dasharray: 4.44,1.92; stroke-dashoffset: 0; stroke: #8a8a8a; stroke-width: 1.2; stroke-linecap: round"/>
   </g>
   <g id="patch_15">
    <path d="M 736.730721 84.547224 
Q 781.783138 84.547224 825.493914 84.547224 
" clip-path="url(#p6c5cd9122b)" style="fill: none; stroke-dasharray: 4.44,1.92; stroke-dashoffset: 0; stroke: #8a8a8a; stroke-width: 1.2; stroke-linecap: round"/>
    <path d="M 819.493914 81.547224 
L 825.493914 84.547224 
L 819.493914 87.547224 
z
" clip-path="url(#p6c5cd9122b)" style="fill: #8a8a8a; stroke-dasharray: 4.44,1.92; stroke-dashoffset: 0; stroke: #8a8a8a; stroke-width: 1.2; stroke-linecap: round"/>
   </g>
   <g id="PathCollection_1">
    <defs>
     <path id="m1a816031cb" d="M 0 19.364917 
C 5.135636 19.364917 10.061621 17.324507 13.693064 13.693064 
C 17.324507 10.061621 19.364917 5.135636 19.364917 0 
C 19.364917 -5.135636 17.324507 -10.061621 13.693064 -13.693064 
C 10.061621 -17.324507 5.135636 -19.364917 0 -19.364917 
C -5.135636 -19.364917 -10.061621 -17.324507 -13.693064 -13.693064 
C -17.324507 -10.061621 -19.364917 -5.135636 -19.364917 0 
C -19.364917 5.135636 -17.324507 10.061621 -13.693064 13.693064 
C -10.061621 17.324507 -5.135636 19.364917 0 19.364917 
z
" style="stroke: #33507a; stroke-width: 1.5"/>
    </defs>
    <g clip-path="url(#p6c5cd9122b)">
     <use xlink:href="#m1a816031cb" x="135.490909" y="84.547224" style="fill: #e8eef7; stroke: #33507a; stroke-width: 1.5"/>
     <use xlink:href="#m1a816031cb" x="135.490909" y="160.496012" style="fill: #e8eef7; stroke: #33507a; stroke-width: 1.5"/>
     <use xlink:href="#m1a816031cb" x="135.490909" y="312.393588" style="fill: #e8eef7; stroke: #33507a; stroke-width: 1.5"/>
     <use xlink:href="#m1a816031cb" x="135.490909" y="388.342376" style="fill: #e8eef7; stroke: #33507a; stroke-width: 1.5"/>
     <use xlink:href="#m1a816031cb" x="453.453292" y="103.534421" style="fill: #e8eef7; stroke: #33507a; stroke-width: 1.5"/>
     <use xlink:href="#m1a816031cb" x="584.78558" y="363.026113" style="fill: #e8eef7; stroke: #33507a; stroke-width: 1.5"/>
    </g>
   </g>
   <g id="PathCollection_2">
    <defs>
     <path id="m21a55dae03" d="M -20.615528 20.615528 
L 20.615528 20.615528 
L 20.615528 -20.615528 
L -20.615528 -20.615528 
z
" style="stroke: #33507a; stroke-width: 1.5"/>
    </defs>
    <g clip-path="url(#p6c5cd9122b)">
     <use xlink:href="#m21a55dae03" x="294.4721" y="122.521618" style="fill: #ffffff; stroke: #33507a; stroke-width: 1.5"/>
     <use xlink:href="#m21a55dae03" x="294.4721" y="350.367982" style="fill: #ffffff; stroke: #33507a; stroke-width: 1.5"/>
     <use xlink:href="#m21a55dae03" x="453.453292" y="236.4448" style="fill: #ffffff; stroke: #33507a; stroke-width: 1.5"/>
     <use xlink:href="#m21a55dae03" x="584.78558" y="236.4448" style="fill: #ffffff; stroke: #33507a; stroke-width: 1.5"/>
     <use xlink:href="#m21a55dae03" x="716.117868" y="236.4448" style="fill: #ffffff; stroke: #33507a; stroke-width: 1.5"/>
     <use xlink:href="#m21a55dae03" x="833.625705" y="236.4448" style="fill: #ffffff; stroke: #33507a; stroke-width: 1.5"/>
     <use xlink:href="#m21a55dae03" x="937.309091" y="236.4448" style="fill: #ffffff; stroke: #33507a; stroke-width: 1.5"/>
     <use xlink:href="#m21a55dae03" x="716.117868" y="84.547224" style="fill: #ffffff; stroke: #33507a; stroke-width: 1.5"/>
     <use xlink:href="#m21a55dae03" x="847.450157" y="84.547224" style="fill: #ffffff; stroke: #33507a; stroke-width: 1.5"/>
    </g>
   </g>
   <g id="text_1">
    <g clip-path="url(#p6c5cd9122b)">
     <!-- $x_{0}$ -->
     <g transform="translate(128.535909 88.134412) scale(0.13 -0.13)">
      <defs>
       <path id="DejaVuSans-Oblique-78" d="M 3841 3500 
L 2234 1784 
L 3219 0 
L 2559 0 
L 1819 1388 
L 531 0 
L -166 0 
L 1556 1844 
L 641 3500 
L 1300 3500 
L 1972 2234 
L 3144 3500 
L 3841 3500 
z
" transform="scale(0.015625)"/>
       <path id="DejaVuSans-30" d="M 2034 4250 
Q 1547 4250 1301 3770 
Q 1056 3291 1056 2328 
Q 1056 1369 1301 889 
Q 1547 409 2034 409 
Q 2525 409 2770 889 
Q 3016 1369 3016 2328 
Q 3016 3291 2770 3770 
Q 2525 4250 2034 4250 
z
M 2034 4750 
Q 2819 4750 3233 4129 
Q 3647 3509 3647 2328 
Q 3647 1150 3233 529 
Q 2819 -91 2034 -91 
Q 1250 -91 836 529 
Q 422 1150 422 2328 
Q 422 3509 836 4129 
Q 1250 4750 2034 4750 
z
" transform="scale(0.015625)"/>
      </defs>
      <use xlink:href="#DejaVuSans-Oblique-78" transform="translate(0 0.3125)"/>
      <use xlink:href="#DejaVuSans-30" transform="translate(59.179688 -16.09375) scale(0.7)"/>
     </g>
    </g>
   </g>
   <g id="text_2">
    <g clip-path="url(#p6c5cd9122b)">
     <!-- $w_{1}$ -->
     <g transform="translate(127.040909 164.0832) scale(0.13 -0.13)">
      <defs>
       <path id="DejaVuSans-Oblique-77" d="M 544 3500 
L 1113 3500 
L 1259 684 
L 2566 3500 
L 3231 3500 
L 3425 684 
L 4666 3500 
L 5241 3500 
L 3641 0 
L 2969 0 
L 2797 2900 
L 1459 0 
L 781 0 
L 544 3500 
z
" transform="scale(0.015625)"/>
       <path id="DejaVuSans-31" d="M 794 531 
L 1825 531 
L 1825 4091 
L 703 3866 
L 703 4441 
L 1819 4666 
L 2450 4666 
L 2450 531 
L 3481 531 
L 3481 0 
L 794 0 
L 794 531 
z
" transform="scale(0.015625)"/>
      </defs>
      <use xlink:href="#DejaVuSans-Oblique-77" transform="translate(0 0.3125)"/>
      <use xlink:href="#DejaVuSans-31" transform="translate(81.787109 -16.09375) scale(0.7)"/>
     </g>
    </g>
   </g>
   <g id="text_3">
    <g clip-path="url(#p6c5cd9122b)">
     <!-- $x_{1}$ -->
     <g transform="translate(128.535909 315.980775) scale(0.13 -0.13)">
      <use xlink:href="#DejaVuSans-Oblique-78" transform="translate(0 0.3125)"/>
      <use xlink:href="#DejaVuSans-31" transform="translate(59.179688 -16.09375) scale(0.7)"/>
     </g>
    </g>
   </g>
   <g id="text_4">
    <g clip-path="url(#p6c5cd9122b)">
     <!-- $w_{2}$ -->
     <g transform="translate(127.040909 391.929563) scale(0.13 -0.13)">
      <defs>
       <path id="DejaVuSans-32" d="M 1228 531 
L 3431 531 
L 3431 0 
L 469 0 
L 469 531 
Q 828 903 1448 1529 
Q 2069 2156 2228 2338 
Q 2531 2678 2651 2914 
Q 2772 3150 2772 3378 
Q 2772 3750 2511 3984 
Q 2250 4219 1831 4219 
Q 1534 4219 1204 4116 
Q 875 4013 500 3803 
L 500 4441 
Q 881 4594 1212 4672 
Q 1544 4750 1819 4750 
Q 2544 4750 2975 4387 
Q 3406 4025 3406 3419 
Q 3406 3131 3298 2873 
Q 3191 2616 2906 2266 
Q 2828 2175 2409 1742 
Q 1991 1309 1228 531 
z
" transform="scale(0.015625)"/>
      </defs>
      <use xlink:href="#DejaVuSans-Oblique-77" transform="translate(0 0.3125)"/>
      <use xlink:href="#DejaVuSans-32" transform="translate(81.787109 -16.09375) scale(0.7)"/>
     </g>
    </g>
   </g>
   <g id="text_5">
    <g clip-path="url(#p6c5cd9122b)">
     <!-- $w_{0}$ -->
     <g transform="translate(445.003292 107.121609) scale(0.13 -0.13)">
      <use xlink:href="#DejaVuSans-Oblique-77" transform="translate(0 0.3125)"/>
      <use xlink:href="#DejaVuSans-30" transform="translate(81.787109 -16.09375) scale(0.7)"/>
     </g>
    </g>
   </g>
   <g id="text_6">
    <g clip-path="url(#p6c5cd9122b)">
     <!-- $d$ -->
     <g transform="translate(580.62558 366.613301) scale(0.13 -0.13)">
      <defs>
       <path id="DejaVuSans-Oblique-64" d="M 2675 525 
Q 2444 222 2128 65 
Q 1813 -91 1428 -91 
Q 903 -91 598 267 
Q 294 625 294 1247 
Q 294 1766 478 2236 
Q 663 2706 1013 3078 
Q 1244 3325 1534 3454 
Q 1825 3584 2144 3584 
Q 2481 3584 2739 3421 
Q 2997 3259 3138 2956 
L 3513 4863 
L 4091 4863 
L 3144 0 
L 2566 0 
L 2675 525 
z
M 891 1350 
Q 891 897 1095 644 
Q 1300 391 1663 391 
Q 1931 391 2161 520 
Q 2391 650 2566 903 
Q 2750 1166 2856 1509 
Q 2963 1853 2963 2188 
Q 2963 2622 2758 2865 
Q 2553 3109 2194 3109 
Q 1922 3109 1687 2981 
Q 1453 2853 1288 2613 
Q 1106 2353 998 2009 
Q 891 1666 891 1350 
z
" transform="scale(0.015625)"/>
      </defs>
      <use xlink:href="#DejaVuSans-Oblique-64" transform="translate(0 0.015625)"/>
     </g>
    </g>
   </g>
   <g id="text_7">
    <g clip-path="url(#p6c5cd9122b)">
     <!-- $\times$ -->
     <g transform="translate(289.0121 126.108806) scale(0.13 -0.13)">
      <defs>
       <path id="DejaVuSans-d7" d="M 4488 3438 
L 3059 2003 
L 4488 575 
L 4116 197 
L 2681 1631 
L 1247 197 
L 878 575 
L 2303 2003 
L 878 3438 
L 1247 3816 
L 2681 2381 
L 4116 3816 
L 4488 3438 
z
" transform="scale(0.015625)"/>
      </defs>
      <use xlink:href="#DejaVuSans-d7" transform="translate(0 0.375)"/>
     </g>
    </g>
   </g>
   <g id="text_8">
    <g clip-path="url(#p6c5cd9122b)">
     <!-- $\times$ -->
     <g transform="translate(289.0121 353.955169) scale(0.13 -0.13)">
      <use xlink:href="#DejaVuSans-d7" transform="translate(0 0.375)"/>
     </g>
    </g>
   </g>
   <g id="text_9">
    <g clip-path="url(#p6c5cd9122b)">
     <!-- $+$ -->
     <g transform="translate(447.993292 240.031987) scale(0.13 -0.13)">
      <defs>
       <path id="DejaVuSans-2b" d="M 2944 4013 
L 2944 2272 
L 4684 2272 
L 4684 1741 
L 2944 1741 
L 2944 0 
L 2419 0 
L 2419 1741 
L 678 1741 
L 678 2272 
L 2419 2272 
L 2419 4013 
L 2944 4013 
z
" transform="scale(0.015625)"/>
      </defs>
      <use xlink:href="#DejaVuSans-2b" transform="translate(0 0.296875)"/>
     </g>
    </g>
   </g>
   <g id="text_10">
    <g clip-path="url(#p6c5cd9122b)">
     <!-- $+$ -->
     <g transform="translate(579.32558 240.031987) scale(0.13 -0.13)">
      <use xlink:href="#DejaVuSans-2b" transform="translate(0 0.296875)"/>
     </g>
    </g>
   </g>
   <g id="text_11">
    <g clip-path="url(#p6c5cd9122b)">
     <!-- $-$ -->
     <g transform="translate(710.657868 240.031987) scale(0.13 -0.13)">
      <defs>
       <path id="DejaVuSans-2212" d="M 678 2272 
L 4684 2272 
L 4684 1741 
L 678 1741 
L 678 2272 
z
" transform="scale(0.015625)"/>
      </defs>
      <use xlink:href="#DejaVuSans-2212" transform="translate(0 0.5)"/>
     </g>
    </g>
   </g>
   <g id="text_12">
    <g clip-path="url(#p6c5cd9122b)">
     <!-- $(\;)^2$ -->
     <g transform="translate(823.615705 240.566206) scale(0.13 -0.13)">
      <defs>
       <path id="DejaVuSans-28" d="M 1984 4856 
Q 1566 4138 1362 3434 
Q 1159 2731 1159 2009 
Q 1159 1288 1364 580 
Q 1569 -128 1984 -844 
L 1484 -844 
Q 1016 -109 783 600 
Q 550 1309 550 2009 
Q 550 2706 781 3412 
Q 1013 4119 1484 4856 
L 1984 4856 
z
" transform="scale(0.015625)"/>
       <path id="DejaVuSans-29" d="M 513 4856 
L 1013 4856 
Q 1481 4119 1714 3412 
Q 1947 2706 1947 2009 
Q 1947 1309 1714 600 
Q 1481 -109 1013 -844 
L 513 -844 
Q 928 -128 1133 580 
Q 1338 1288 1338 2009 
Q 1338 2731 1133 3434 
Q 928 4138 513 4856 
z
" transform="scale(0.015625)"/>
      </defs>
      <use xlink:href="#DejaVuSans-28" transform="translate(0 0.765625)"/>
      <use xlink:href="#DejaVuSans-29" transform="translate(66.072808 0.765625)"/>
      <use xlink:href="#DejaVuSans-32" transform="translate(106.043511 39.046875) scale(0.7)"/>
     </g>
    </g>
   </g>
   <g id="text_13">
    <g clip-path="url(#p6c5cd9122b)">
     <!-- $L$ -->
     <g transform="translate(933.669091 240.031987) scale(0.13 -0.13)">
      <defs>
       <path id="DejaVuSans-Oblique-4c" d="M 1075 4666 
L 1709 4666 
L 909 525 
L 3181 525 
L 3078 0 
L 172 0 
L 1075 4666 
z
" transform="scale(0.015625)"/>
      </defs>
      <use xlink:href="#DejaVuSans-Oblique-4c" transform="translate(0 0.09375)"/>
     </g>
    </g>
   </g>
   <g id="text_14">
    <g clip-path="url(#p6c5cd9122b)">
     <!-- $sign$ -->
     <g transform="translate(702.662868 88.122224) scale(0.13 -0.13)">
      <defs>
       <path id="DejaVuSans-Oblique-73" d="M 3200 3397 
L 3091 2853 
Q 2863 2978 2609 3040 
Q 2356 3103 2088 3103 
Q 1634 3103 1373 2948 
Q 1113 2794 1113 2528 
Q 1113 2219 1719 2053 
Q 1766 2041 1788 2034 
L 1972 1978 
Q 2547 1819 2739 1644 
Q 2931 1469 2931 1166 
Q 2931 609 2489 259 
Q 2047 -91 1331 -91 
Q 1053 -91 747 -37 
Q 441 16 72 128 
L 184 722 
Q 500 559 806 475 
Q 1113 391 1394 391 
Q 1816 391 2080 572 
Q 2344 753 2344 1031 
Q 2344 1331 1650 1516 
L 1591 1531 
L 1394 1581 
Q 956 1697 753 1886 
Q 550 2075 550 2369 
Q 550 2928 970 3256 
Q 1391 3584 2113 3584 
Q 2397 3584 2667 3537 
Q 2938 3491 3200 3397 
z
" transform="scale(0.015625)"/>
       <path id="DejaVuSans-Oblique-69" d="M 1172 4863 
L 1747 4863 
L 1606 4134 
L 1031 4134 
L 1172 4863 
z
M 909 3500 
L 1484 3500 
L 800 0 
L 225 0 
L 909 3500 
z
" transform="scale(0.015625)"/>
       <path id="DejaVuSans-Oblique-67" d="M 3816 3500 
L 3219 434 
Q 3047 -456 2561 -893 
Q 2075 -1331 1253 -1331 
Q 950 -1331 690 -1286 
Q 431 -1241 206 -1147 
L 313 -588 
Q 525 -725 762 -790 
Q 1000 -856 1269 -856 
Q 1816 -856 2167 -557 
Q 2519 -259 2631 300 
L 2681 563 
Q 2441 288 2122 144 
Q 1803 0 1434 0 
Q 903 0 598 351 
Q 294 703 294 1319 
Q 294 1803 478 2267 
Q 663 2731 997 3091 
Q 1219 3328 1514 3456 
Q 1809 3584 2131 3584 
Q 2484 3584 2746 3420 
Q 3009 3256 3138 2956 
L 3238 3500 
L 3816 3500 
z
M 2950 2216 
Q 2950 2641 2750 2872 
Q 2550 3103 2181 3103 
Q 1953 3103 1747 3012 
Q 1541 2922 1394 2759 
Q 1156 2491 1023 2127 
Q 891 1763 891 1375 
Q 891 944 1092 712 
Q 1294 481 1672 481 
Q 2219 481 2584 976 
Q 2950 1472 2950 2216 
z
" transform="scale(0.015625)"/>
       <path id="DejaVuSans-Oblique-6e" d="M 3566 2113 
L 3156 0 
L 2578 0 
L 2988 2091 
Q 3016 2238 3031 2350 
Q 3047 2463 3047 2528 
Q 3047 2791 2881 2937 
Q 2716 3084 2419 3084 
Q 1956 3084 1622 2776 
Q 1288 2469 1184 1941 
L 800 0 
L 225 0 
L 903 3500 
L 1478 3500 
L 1363 2950 
Q 1603 3253 1940 3418 
Q 2278 3584 2650 3584 
Q 3113 3584 3367 3334 
Q 3622 3084 3622 2631 
Q 3622 2519 3608 2391 
Q 3594 2263 3566 2113 
z
" transform="scale(0.015625)"/>
      </defs>
      <use xlink:href="#DejaVuSans-Oblique-73" transform="translate(0 0.015625)"/>
      <use xlink:href="#DejaVuSans-Oblique-69" transform="translate(52.099609 0.015625)"/>
      <use xlink:href="#DejaVuSans-Oblique-67" transform="translate(79.882812 0.015625)"/>
      <use xlink:href="#DejaVuSans-Oblique-6e" transform="translate(143.359375 0.015625)"/>
     </g>
    </g>
   </g>
   <g id="text_15">
    <g clip-path="url(#p6c5cd9122b)">
     <!-- $nn$ -->
     <g transform="translate(839.195157 88.134412) scale(0.13 -0.13)">
      <use xlink:href="#DejaVuSans-Oblique-6e"/>
      <use xlink:href="#DejaVuSans-Oblique-6e" transform="translate(63.378906 0)"/>
     </g>
    </g>
   </g>
   <g id="text_16">
    <!-- $grad\_w_0 = grad\_y$        $grad\_w_1 = grad\_s0 \cdot x_0$        $grad\_w_2 = grad\_s1 \cdot x_1$ -->
    <g style="fill: #dc143c" transform="translate(339.17 453.329792) scale(0.11 -0.11)">
     <defs>
      <path id="DejaVuSans-Oblique-72" d="M 2853 2969 
Q 2766 3016 2653 3041 
Q 2541 3066 2413 3066 
Q 1953 3066 1609 2717 
Q 1266 2369 1153 1784 
L 800 0 
L 225 0 
L 909 3500 
L 1484 3500 
L 1375 2956 
Q 1603 3259 1920 3421 
Q 2238 3584 2597 3584 
Q 2691 3584 2781 3573 
Q 2872 3563 2963 3538 
L 2853 2969 
z
" transform="scale(0.015625)"/>
      <path id="DejaVuSans-Oblique-61" d="M 3438 1997 
L 3047 0 
L 2472 0 
L 2578 531 
Q 2325 219 2001 64 
Q 1678 -91 1281 -91 
Q 834 -91 548 182 
Q 263 456 263 884 
Q 263 1497 752 1853 
Q 1241 2209 2100 2209 
L 2900 2209 
L 2931 2363 
Q 2938 2388 2941 2417 
Q 2944 2447 2944 2509 
Q 2944 2788 2717 2942 
Q 2491 3097 2081 3097 
Q 1800 3097 1504 3025 
Q 1209 2953 897 2809 
L 997 3341 
Q 1322 3463 1633 3523 
Q 1944 3584 2234 3584 
Q 2853 3584 3176 3315 
Q 3500 3047 3500 2534 
Q 3500 2431 3484 2292 
Q 3469 2153 3438 1997 
z
M 2816 1759 
L 2241 1759 
Q 1534 1759 1195 1570 
Q 856 1381 856 984 
Q 856 709 1029 553 
Q 1203 397 1509 397 
Q 1978 397 2328 733 
Q 2678 1069 2791 1631 
L 2816 1759 
z
" transform="scale(0.015625)"/>
      <path id="DejaVuSans-5f" d="M 3263 -1063 
L 3263 -1509 
L -63 -1509 
L -63 -1063 
L 3263 -1063 
z
" transform="scale(0.015625)"/>
      <path id="DejaVuSans-3d" d="M 678 2906 
L 4684 2906 
L 4684 2381 
L 678 2381 
L 678 2906 
z
M 678 1631 
L 4684 1631 
L 4684 1100 
L 678 1100 
L 678 1631 
z
" transform="scale(0.015625)"/>
      <path id="DejaVuSans-Oblique-79" d="M 1588 -325 
Q 1188 -997 936 -1164 
Q 684 -1331 294 -1331 
L -159 -1331 
L -63 -850 
L 269 -850 
Q 509 -850 678 -719 
Q 847 -588 1056 -206 
L 1234 128 
L 459 3500 
L 1069 3500 
L 1650 819 
L 3256 3500 
L 3859 3500 
L 1588 -325 
z
" transform="scale(0.015625)"/>
      <path id="DejaVuSans-20" transform="scale(0.015625)"/>
      <path id="DejaVuSans-22c5" d="M 684 2619 
L 1344 2619 
L 1344 1825 
L 684 1825 
L 684 2619 
z
" transform="scale(0.015625)"/>
     </defs>
     <use xlink:href="#DejaVuSans-Oblique-67" transform="translate(0 0.015625)"/>
     <use xlink:href="#DejaVuSans-Oblique-72" transform="translate(63.476562 0.015625)"/>
     <use xlink:href="#DejaVuSans-Oblique-61" transform="translate(104.589844 0.015625)"/>
     <use xlink:href="#DejaVuSans-Oblique-64" transform="translate(165.869141 0.015625)"/>
     <use xlink:href="#DejaVuSans-5f" transform="translate(229.345703 0.015625)"/>
     <use xlink:href="#DejaVuSans-Oblique-77" transform="translate(279.345703 0.015625)"/>
     <use xlink:href="#DejaVuSans-30" transform="translate(361.132812 -16.390625) scale(0.7)"/>
     <use xlink:href="#DejaVuSans-3d" transform="translate(427.885742 0.015625)"/>
     <use xlink:href="#DejaVuSans-Oblique-67" transform="translate(531.157227 0.015625)"/>
     <use xlink:href="#DejaVuSans-Oblique-72" transform="translate(594.633789 0.015625)"/>
     <use xlink:href="#DejaVuSans-Oblique-61" transform="translate(635.74707 0.015625)"/>
     <use xlink:href="#DejaVuSans-Oblique-64" transform="translate(697.026367 0.015625)"/>
     <use xlink:href="#DejaVuSans-5f" transform="translate(760.50293 0.015625)"/>
     <use xlink:href="#DejaVuSans-Oblique-79" transform="translate(810.50293 0.015625)"/>
     <use xlink:href="#DejaVuSans-20" transform="translate(869.682617 0.015625)"/>
     <use xlink:href="#DejaVuSans-20" transform="translate(901.469727 0.015625)"/>
     <use xlink:href="#DejaVuSans-20" transform="translate(933.256836 0.015625)"/>
     <use xlink:href="#DejaVuSans-20" transform="translate(965.043945 0.015625)"/>
     <use xlink:href="#DejaVuSans-20" transform="translate(996.831055 0.015625)"/>
     <use xlink:href="#DejaVuSans-20" transform="translate(1028.618164 0.015625)"/>
     <use xlink:href="#DejaVuSans-20" transform="translate(1060.405273 0.015625)"/>
     <use xlink:href="#DejaVuSans-20" transform="translate(1092.192383 0.015625)"/>
     <use xlink:href="#DejaVuSans-Oblique-67" transform="translate(1123.979492 0.015625)"/>
     <use xlink:href="#DejaVuSans-Oblique-72" transform="translate(1187.456055 0.015625)"/>
     <use xlink:href="#DejaVuSans-Oblique-61" transform="translate(1228.569336 0.015625)"/>
     <use xlink:href="#DejaVuSans-Oblique-64" transform="translate(1289.848633 0.015625)"/>
     <use xlink:href="#DejaVuSans-5f" transform="translate(1353.325195 0.015625)"/>
     <use xlink:href="#DejaVuSans-Oblique-77" transform="translate(1403.325195 0.015625)"/>
     <use xlink:href="#DejaVuSans-31" transform="translate(1485.112305 -16.390625) scale(0.7)"/>
     <use xlink:href="#DejaVuSans-3d" transform="translate(1551.865234 0.015625)"/>
     <use xlink:href="#DejaVuSans-Oblique-67" transform="translate(1655.136719 0.015625)"/>
     <use xlink:href="#DejaVuSans-Oblique-72" transform="translate(1718.613281 0.015625)"/>
     <use xlink:href="#DejaVuSans-Oblique-61" transform="translate(1759.726562 0.015625)"/>
     <use xlink:href="#DejaVuSans-Oblique-64" transform="translate(1821.005859 0.015625)"/>
     <use xlink:href="#DejaVuSans-5f" transform="translate(1884.482422 0.015625)"/>
     <use xlink:href="#DejaVuSans-Oblique-73" transform="translate(1934.482422 0.015625)"/>
     <use xlink:href="#DejaVuSans-30" transform="translate(1986.582031 0.015625)"/>
     <use xlink:href="#DejaVuSans-22c5" transform="translate(2069.6875 0.015625)"/>
     <use xlink:href="#DejaVuSans-Oblique-78" transform="translate(2120.957031 0.015625)"/>
     <use xlink:href="#DejaVuSans-30" transform="translate(2180.136719 -16.390625) scale(0.7)"/>
     <use xlink:href="#DejaVuSans-20" transform="translate(2227.407227 0.015625)"/>
     <use xlink:href="#DejaVuSans-20" transform="translate(2259.194336 0.015625)"/>
     <use xlink:href="#DejaVuSans-20" transform="translate(2290.981445 0.015625)"/>
     <use xlink:href="#DejaVuSans-20" transform="translate(2322.768555 0.015625)"/>
     <use xlink:href="#DejaVuSans-20" transform="translate(2354.555664 0.015625)"/>
     <use xlink:href="#DejaVuSans-20" transform="translate(2386.342773 0.015625)"/>
     <use xlink:href="#DejaVuSans-20" transform="translate(2418.129883 0.015625)"/>
     <use xlink:href="#DejaVuSans-20" transform="translate(2449.916992 0.015625)"/>
     <use xlink:href="#DejaVuSans-Oblique-67" transform="translate(2481.704102 0.015625)"/>
     <use xlink:href="#DejaVuSans-Oblique-72" transform="translate(2545.180664 0.015625)"/>
     <use xlink:href="#DejaVuSans-Oblique-61" transform="translate(2586.293945 0.015625)"/>
     <use xlink:href="#DejaVuSans-Oblique-64" transform="translate(2647.573242 0.015625)"/>
     <use xlink:href="#DejaVuSans-5f" transform="translate(2711.049805 0.015625)"/>
     <use xlink:href="#DejaVuSans-Oblique-77" transform="translate(2761.049805 0.015625)"/>
     <use xlink:href="#DejaVuSans-32" transform="translate(2842.836914 -16.390625) scale(0.7)"/>
     <use xlink:href="#DejaVuSans-3d" transform="translate(2909.589844 0.015625)"/>
     <use xlink:href="#DejaVuSans-Oblique-67" transform="translate(3012.861328 0.015625)"/>
     <use xlink:href="#DejaVuSans-Oblique-72" transform="translate(3076.337891 0.015625)"/>
     <use xlink:href="#DejaVuSans-Oblique-61" transform="translate(3117.451172 0.015625)"/>
     <use xlink:href="#DejaVuSans-Oblique-64" transform="translate(3178.730469 0.015625)"/>
     <use xlink:href="#DejaVuSans-5f" transform="translate(3242.207031 0.015625)"/>
     <use xlink:href="#DejaVuSans-Oblique-73" transform="translate(3292.207031 0.015625)"/>
     <use xlink:href="#DejaVuSans-31" transform="translate(3344.306641 0.015625)"/>
     <use xlink:href="#DejaVuSans-22c5" transform="translate(3427.412109 0.015625)"/>
     <use xlink:href="#DejaVuSans-Oblique-78" transform="translate(3478.681641 0.015625)"/>
     <use xlink:href="#DejaVuSans-31" transform="translate(3537.861328 -16.390625) scale(0.7)"/>
    </g>
   </g>
   <g id="text_17">
    <!-- O exemplo3.py escreve grad_e = grad_L * e, absorvendo o fator 2 na taxa de aprendizado. -->
    <g style="fill: #666666" transform="translate(342.465859 475.48904) scale(0.085 -0.085)">
     <defs>
      <path id="DejaVuSans-4f" d="M 2522 4238 
Q 1834 4238 1429 3725 
Q 1025 3213 1025 2328 
Q 1025 1447 1429 934 
Q 1834 422 2522 422 
Q 3209 422 3611 934 
Q 4013 1447 4013 2328 
Q 4013 3213 3611 3725 
Q 3209 4238 2522 4238 
z
M 2522 4750 
Q 3503 4750 4090 4092 
Q 4678 3434 4678 2328 
Q 4678 1225 4090 567 
Q 3503 -91 2522 -91 
Q 1538 -91 948 565 
Q 359 1222 359 2328 
Q 359 3434 948 4092 
Q 1538 4750 2522 4750 
z
" transform="scale(0.015625)"/>
      <path id="DejaVuSans-65" d="M 3597 1894 
L 3597 1613 
L 953 1613 
Q 991 1019 1311 708 
Q 1631 397 2203 397 
Q 2534 397 2845 478 
Q 3156 559 3463 722 
L 3463 178 
Q 3153 47 2828 -22 
Q 2503 -91 2169 -91 
Q 1331 -91 842 396 
Q 353 884 353 1716 
Q 353 2575 817 3079 
Q 1281 3584 2069 3584 
Q 2775 3584 3186 3129 
Q 3597 2675 3597 1894 
z
M 3022 2063 
Q 3016 2534 2758 2815 
Q 2500 3097 2075 3097 
Q 1594 3097 1305 2825 
Q 1016 2553 972 2059 
L 3022 2063 
z
" transform="scale(0.015625)"/>
      <path id="DejaVuSans-78" d="M 3513 3500 
L 2247 1797 
L 3578 0 
L 2900 0 
L 1881 1375 
L 863 0 
L 184 0 
L 1544 1831 
L 300 3500 
L 978 3500 
L 1906 2253 
L 2834 3500 
L 3513 3500 
z
" transform="scale(0.015625)"/>
      <path id="DejaVuSans-6d" d="M 3328 2828 
Q 3544 3216 3844 3400 
Q 4144 3584 4550 3584 
Q 5097 3584 5394 3201 
Q 5691 2819 5691 2113 
L 5691 0 
L 5113 0 
L 5113 2094 
Q 5113 2597 4934 2840 
Q 4756 3084 4391 3084 
Q 3944 3084 3684 2787 
Q 3425 2491 3425 1978 
L 3425 0 
L 2847 0 
L 2847 2094 
Q 2847 2600 2669 2842 
Q 2491 3084 2119 3084 
Q 1678 3084 1418 2786 
Q 1159 2488 1159 1978 
L 1159 0 
L 581 0 
L 581 3500 
L 1159 3500 
L 1159 2956 
Q 1356 3278 1631 3431 
Q 1906 3584 2284 3584 
Q 2666 3584 2933 3390 
Q 3200 3197 3328 2828 
z
" transform="scale(0.015625)"/>
      <path id="DejaVuSans-70" d="M 1159 525 
L 1159 -1331 
L 581 -1331 
L 581 3500 
L 1159 3500 
L 1159 2969 
Q 1341 3281 1617 3432 
Q 1894 3584 2278 3584 
Q 2916 3584 3314 3078 
Q 3713 2572 3713 1747 
Q 3713 922 3314 415 
Q 2916 -91 2278 -91 
Q 1894 -91 1617 61 
Q 1341 213 1159 525 
z
M 3116 1747 
Q 3116 2381 2855 2742 
Q 2594 3103 2138 3103 
Q 1681 3103 1420 2742 
Q 1159 2381 1159 1747 
Q 1159 1113 1420 752 
Q 1681 391 2138 391 
Q 2594 391 2855 752 
Q 3116 1113 3116 1747 
z
" transform="scale(0.015625)"/>
      <path id="DejaVuSans-6c" d="M 603 4863 
L 1178 4863 
L 1178 0 
L 603 0 
L 603 4863 
z
" transform="scale(0.015625)"/>
      <path id="DejaVuSans-6f" d="M 1959 3097 
Q 1497 3097 1228 2736 
Q 959 2375 959 1747 
Q 959 1119 1226 758 
Q 1494 397 1959 397 
Q 2419 397 2687 759 
Q 2956 1122 2956 1747 
Q 2956 2369 2687 2733 
Q 2419 3097 1959 3097 
z
M 1959 3584 
Q 2709 3584 3137 3096 
Q 3566 2609 3566 1747 
Q 3566 888 3137 398 
Q 2709 -91 1959 -91 
Q 1206 -91 779 398 
Q 353 888 353 1747 
Q 353 2609 779 3096 
Q 1206 3584 1959 3584 
z
" transform="scale(0.015625)"/>
      <path id="DejaVuSans-33" d="M 2597 2516 
Q 3050 2419 3304 2112 
Q 3559 1806 3559 1356 
Q 3559 666 3084 287 
Q 2609 -91 1734 -91 
Q 1441 -91 1130 -33 
Q 819 25 488 141 
L 488 750 
Q 750 597 1062 519 
Q 1375 441 1716 441 
Q 2309 441 2620 675 
Q 2931 909 2931 1356 
Q 2931 1769 2642 2001 
Q 2353 2234 1838 2234 
L 1294 2234 
L 1294 2753 
L 1863 2753 
Q 2328 2753 2575 2939 
Q 2822 3125 2822 3475 
Q 2822 3834 2567 4026 
Q 2313 4219 1838 4219 
Q 1578 4219 1281 4162 
Q 984 4106 628 3988 
L 628 4550 
Q 988 4650 1302 4700 
Q 1616 4750 1894 4750 
Q 2613 4750 3031 4423 
Q 3450 4097 3450 3541 
Q 3450 3153 3228 2886 
Q 3006 2619 2597 2516 
z
" transform="scale(0.015625)"/>
      <path id="DejaVuSans-2e" d="M 684 794 
L 1344 794 
L 1344 0 
L 684 0 
L 684 794 
z
" transform="scale(0.015625)"/>
      <path id="DejaVuSans-79" d="M 2059 -325 
Q 1816 -950 1584 -1140 
Q 1353 -1331 966 -1331 
L 506 -1331 
L 506 -850 
L 844 -850 
Q 1081 -850 1212 -737 
Q 1344 -625 1503 -206 
L 1606 56 
L 191 3500 
L 800 3500 
L 1894 763 
L 2988 3500 
L 3597 3500 
L 2059 -325 
z
" transform="scale(0.015625)"/>
      <path id="DejaVuSans-73" d="M 2834 3397 
L 2834 2853 
Q 2591 2978 2328 3040 
Q 2066 3103 1784 3103 
Q 1356 3103 1142 2972 
Q 928 2841 928 2578 
Q 928 2378 1081 2264 
Q 1234 2150 1697 2047 
L 1894 2003 
Q 2506 1872 2764 1633 
Q 3022 1394 3022 966 
Q 3022 478 2636 193 
Q 2250 -91 1575 -91 
Q 1294 -91 989 -36 
Q 684 19 347 128 
L 347 722 
Q 666 556 975 473 
Q 1284 391 1588 391 
Q 1994 391 2212 530 
Q 2431 669 2431 922 
Q 2431 1156 2273 1281 
Q 2116 1406 1581 1522 
L 1381 1569 
Q 847 1681 609 1914 
Q 372 2147 372 2553 
Q 372 3047 722 3315 
Q 1072 3584 1716 3584 
Q 2034 3584 2315 3537 
Q 2597 3491 2834 3397 
z
" transform="scale(0.015625)"/>
      <path id="DejaVuSans-63" d="M 3122 3366 
L 3122 2828 
Q 2878 2963 2633 3030 
Q 2388 3097 2138 3097 
Q 1578 3097 1268 2742 
Q 959 2388 959 1747 
Q 959 1106 1268 751 
Q 1578 397 2138 397 
Q 2388 397 2633 464 
Q 2878 531 3122 666 
L 3122 134 
Q 2881 22 2623 -34 
Q 2366 -91 2075 -91 
Q 1284 -91 818 406 
Q 353 903 353 1747 
Q 353 2603 823 3093 
Q 1294 3584 2113 3584 
Q 2378 3584 2631 3529 
Q 2884 3475 3122 3366 
z
" transform="scale(0.015625)"/>
      <path id="DejaVuSans-72" d="M 2631 2963 
Q 2534 3019 2420 3045 
Q 2306 3072 2169 3072 
Q 1681 3072 1420 2755 
Q 1159 2438 1159 1844 
L 1159 0 
L 581 0 
L 581 3500 
L 1159 3500 
L 1159 2956 
Q 1341 3275 1631 3429 
Q 1922 3584 2338 3584 
Q 2397 3584 2469 3576 
Q 2541 3569 2628 3553 
L 2631 2963 
z
" transform="scale(0.015625)"/>
      <path id="DejaVuSans-76" d="M 191 3500 
L 800 3500 
L 1894 563 
L 2988 3500 
L 3597 3500 
L 2284 0 
L 1503 0 
L 191 3500 
z
" transform="scale(0.015625)"/>
      <path id="DejaVuSans-67" d="M 2906 1791 
Q 2906 2416 2648 2759 
Q 2391 3103 1925 3103 
Q 1463 3103 1205 2759 
Q 947 2416 947 1791 
Q 947 1169 1205 825 
Q 1463 481 1925 481 
Q 2391 481 2648 825 
Q 2906 1169 2906 1791 
z
M 3481 434 
Q 3481 -459 3084 -895 
Q 2688 -1331 1869 -1331 
Q 1566 -1331 1297 -1286 
Q 1028 -1241 775 -1147 
L 775 -588 
Q 1028 -725 1275 -790 
Q 1522 -856 1778 -856 
Q 2344 -856 2625 -561 
Q 2906 -266 2906 331 
L 2906 616 
Q 2728 306 2450 153 
Q 2172 0 1784 0 
Q 1141 0 747 490 
Q 353 981 353 1791 
Q 353 2603 747 3093 
Q 1141 3584 1784 3584 
Q 2172 3584 2450 3431 
Q 2728 3278 2906 2969 
L 2906 3500 
L 3481 3500 
L 3481 434 
z
" transform="scale(0.015625)"/>
      <path id="DejaVuSans-61" d="M 2194 1759 
Q 1497 1759 1228 1600 
Q 959 1441 959 1056 
Q 959 750 1161 570 
Q 1363 391 1709 391 
Q 2188 391 2477 730 
Q 2766 1069 2766 1631 
L 2766 1759 
L 2194 1759 
z
M 3341 1997 
L 3341 0 
L 2766 0 
L 2766 531 
Q 2569 213 2275 61 
Q 1981 -91 1556 -91 
Q 1019 -91 701 211 
Q 384 513 384 1019 
Q 384 1609 779 1909 
Q 1175 2209 1959 2209 
L 2766 2209 
L 2766 2266 
Q 2766 2663 2505 2880 
Q 2244 3097 1772 3097 
Q 1472 3097 1187 3025 
Q 903 2953 641 2809 
L 641 3341 
Q 956 3463 1253 3523 
Q 1550 3584 1831 3584 
Q 2591 3584 2966 3190 
Q 3341 2797 3341 1997 
z
" transform="scale(0.015625)"/>
      <path id="DejaVuSans-64" d="M 2906 2969 
L 2906 4863 
L 3481 4863 
L 3481 0 
L 2906 0 
L 2906 525 
Q 2725 213 2448 61 
Q 2172 -91 1784 -91 
Q 1150 -91 751 415 
Q 353 922 353 1747 
Q 353 2572 751 3078 
Q 1150 3584 1784 3584 
Q 2172 3584 2448 3432 
Q 2725 3281 2906 2969 
z
M 947 1747 
Q 947 1113 1208 752 
Q 1469 391 1925 391 
Q 2381 391 2643 752 
Q 2906 1113 2906 1747 
Q 2906 2381 2643 2742 
Q 2381 3103 1925 3103 
Q 1469 3103 1208 2742 
Q 947 2381 947 1747 
z
" transform="scale(0.015625)"/>
      <path id="DejaVuSans-4c" d="M 628 4666 
L 1259 4666 
L 1259 531 
L 3531 531 
L 3531 0 
L 628 0 
L 628 4666 
z
" transform="scale(0.015625)"/>
      <path id="DejaVuSans-2a" d="M 3009 3897 
L 1888 3291 
L 3009 2681 
L 2828 2375 
L 1778 3009 
L 1778 1831 
L 1422 1831 
L 1422 3009 
L 372 2375 
L 191 2681 
L 1313 3291 
L 191 3897 
L 372 4206 
L 1422 3572 
L 1422 4750 
L 1778 4750 
L 1778 3572 
L 2828 4206 
L 3009 3897 
z
" transform="scale(0.015625)"/>
      <path id="DejaVuSans-2c" d="M 750 794 
L 1409 794 
L 1409 256 
L 897 -744 
L 494 -744 
L 750 256 
L 750 794 
z
" transform="scale(0.015625)"/>
      <path id="DejaVuSans-62" d="M 3116 1747 
Q 3116 2381 2855 2742 
Q 2594 3103 2138 3103 
Q 1681 3103 1420 2742 
Q 1159 2381 1159 1747 
Q 1159 1113 1420 752 
Q 1681 391 2138 391 
Q 2594 391 2855 752 
Q 3116 1113 3116 1747 
z
M 1159 2969 
Q 1341 3281 1617 3432 
Q 1894 3584 2278 3584 
Q 2916 3584 3314 3078 
Q 3713 2572 3713 1747 
Q 3713 922 3314 415 
Q 2916 -91 2278 -91 
Q 1894 -91 1617 61 
Q 1341 213 1159 525 
L 1159 0 
L 581 0 
L 581 4863 
L 1159 4863 
L 1159 2969 
z
" transform="scale(0.015625)"/>
      <path id="DejaVuSans-6e" d="M 3513 2113 
L 3513 0 
L 2938 0 
L 2938 2094 
Q 2938 2591 2744 2837 
Q 2550 3084 2163 3084 
Q 1697 3084 1428 2787 
Q 1159 2491 1159 1978 
L 1159 0 
L 581 0 
L 581 3500 
L 1159 3500 
L 1159 2956 
Q 1366 3272 1645 3428 
Q 1925 3584 2291 3584 
Q 2894 3584 3203 3211 
Q 3513 2838 3513 2113 
z
" transform="scale(0.015625)"/>
      <path id="DejaVuSans-66" d="M 2375 4863 
L 2375 4384 
L 1825 4384 
Q 1516 4384 1395 4259 
Q 1275 4134 1275 3809 
L 1275 3500 
L 2222 3500 
L 2222 3053 
L 1275 3053 
L 1275 0 
L 697 0 
L 697 3053 
L 147 3053 
L 147 3500 
L 697 3500 
L 697 3744 
Q 697 4328 969 4595 
Q 1241 4863 1831 4863 
L 2375 4863 
z
" transform="scale(0.015625)"/>
      <path id="DejaVuSans-74" d="M 1172 4494 
L 1172 3500 
L 2356 3500 
L 2356 3053 
L 1172 3053 
L 1172 1153 
Q 1172 725 1289 603 
Q 1406 481 1766 481 
L 2356 481 
L 2356 0 
L 1766 0 
Q 1100 0 847 248 
Q 594 497 594 1153 
L 594 3053 
L 172 3053 
L 172 3500 
L 594 3500 
L 594 4494 
L 1172 4494 
z
" transform="scale(0.015625)"/>
      <path id="DejaVuSans-69" d="M 603 3500 
L 1178 3500 
L 1178 0 
L 603 0 
L 603 3500 
z
M 603 4863 
L 1178 4863 
L 1178 4134 
L 603 4134 
L 603 4863 
z
" transform="scale(0.015625)"/>
      <path id="DejaVuSans-7a" d="M 353 3500 
L 3084 3500 
L 3084 2975 
L 922 459 
L 3084 459 
L 3084 0 
L 275 0 
L 275 525 
L 2438 3041 
L 353 3041 
L 353 3500 
z
" transform="scale(0.015625)"/>
     </defs>
     <use xlink:href="#DejaVuSans-4f"/>
     <use xlink:href="#DejaVuSans-20" transform="translate(78.710938 0)"/>
     <use xlink:href="#DejaVuSans-65" transform="translate(110.498047 0)"/>
     <use xlink:href="#DejaVuSans-78" transform="translate(170.271484 0)"/>
     <use xlink:href="#DejaVuSans-65" transform="translate(226.326172 0)"/>
     <use xlink:href="#DejaVuSans-6d" transform="translate(287.849609 0)"/>
     <use xlink:href="#DejaVuSans-70" transform="translate(385.261719 0)"/>
     <use xlink:href="#DejaVuSans-6c" transform="translate(448.738281 0)"/>
     <use xlink:href="#DejaVuSans-6f" transform="translate(476.521484 0)"/>
     <use xlink:href="#DejaVuSans-33" transform="translate(537.703125 0)"/>
     <use xlink:href="#DejaVuSans-2e" transform="translate(601.326172 0)"/>
     <use xlink:href="#DejaVuSans-70" transform="translate(633.113281 0)"/>
     <use xlink:href="#DejaVuSans-79" transform="translate(696.589844 0)"/>
     <use xlink:href="#DejaVuSans-20" transform="translate(755.769531 0)"/>
     <use xlink:href="#DejaVuSans-65" transform="translate(787.556641 0)"/>
     <use xlink:href="#DejaVuSans-73" transform="translate(849.080078 0)"/>
     <use xlink:href="#DejaVuSans-63" transform="translate(901.179688 0)"/>
     <use xlink:href="#DejaVuSans-72" transform="translate(956.160156 0)"/>
     <use xlink:href="#DejaVuSans-65" transform="translate(995.023438 0)"/>
     <use xlink:href="#DejaVuSans-76" transform="translate(1056.546875 0)"/>
     <use xlink:href="#DejaVuSans-65" transform="translate(1115.726562 0)"/>
     <use xlink:href="#DejaVuSans-20" transform="translate(1177.25 0)"/>
     <use xlink:href="#DejaVuSans-67" transform="translate(1209.037109 0)"/>
     <use xlink:href="#DejaVuSans-72" transform="translate(1272.513672 0)"/>
     <use xlink:href="#DejaVuSans-61" transform="translate(1313.626953 0)"/>
     <use xlink:href="#DejaVuSans-64" transform="translate(1374.90625 0)"/>
     <use xlink:href="#DejaVuSans-5f" transform="translate(1438.382812 0)"/>
     <use xlink:href="#DejaVuSans-65" transform="translate(1488.382812 0)"/>
     <use xlink:href="#DejaVuSans-20" transform="translate(1549.90625 0)"/>
     <use xlink:href="#DejaVuSans-3d" transform="translate(1581.693359 0)"/>
     <use xlink:href="#DejaVuSans-20" transform="translate(1665.482422 0)"/>
     <use xlink:href="#DejaVuSans-67" transform="translate(1697.269531 0)"/>
     <use xlink:href="#DejaVuSans-72" transform="translate(1760.746094 0)"/>
     <use xlink:href="#DejaVuSans-61" transform="translate(1801.859375 0)"/>
     <use xlink:href="#DejaVuSans-64" transform="translate(1863.138672 0)"/>
     <use xlink:href="#DejaVuSans-5f" transform="translate(1926.615234 0)"/>
     <use xlink:href="#DejaVuSans-4c" transform="translate(1976.615234 0)"/>
     <use xlink:href="#DejaVuSans-20" transform="translate(2032.328125 0)"/>
     <use xlink:href="#DejaVuSans-2a" transform="translate(2064.115234 0)"/>
     <use xlink:href="#DejaVuSans-20" transform="translate(2114.115234 0)"/>
     <use xlink:href="#DejaVuSans-65" transform="translate(2145.902344 0)"/>
     <use xlink:href="#DejaVuSans-2c" transform="translate(2207.425781 0)"/>
     <use xlink:href="#DejaVuSans-20" transform="translate(2239.212891 0)"/>
     <use xlink:href="#DejaVuSans-61" transform="translate(2271 0)"/>
     <use xlink:href="#DejaVuSans-62" transform="translate(2332.279297 0)"/>
     <use xlink:href="#DejaVuSans-73" transform="translate(2395.755859 0)"/>
     <use xlink:href="#DejaVuSans-6f" transform="translate(2447.855469 0)"/>
     <use xlink:href="#DejaVuSans-72" transform="translate(2509.037109 0)"/>
     <use xlink:href="#DejaVuSans-76" transform="translate(2550.150391 0)"/>
     <use xlink:href="#DejaVuSans-65" transform="translate(2609.330078 0)"/>
     <use xlink:href="#DejaVuSans-6e" transform="translate(2670.853516 0)"/>
     <use xlink:href="#DejaVuSans-64" transform="translate(2734.232422 0)"/>
     <use xlink:href="#DejaVuSans-6f" transform="translate(2797.708984 0)"/>
     <use xlink:href="#DejaVuSans-20" transform="translate(2858.890625 0)"/>
     <use xlink:href="#DejaVuSans-6f" transform="translate(2890.677734 0)"/>
     <use xlink:href="#DejaVuSans-20" transform="translate(2951.859375 0)"/>
     <use xlink:href="#DejaVuSans-66" transform="translate(2983.646484 0)"/>
     <use xlink:href="#DejaVuSans-61" transform="translate(3018.851562 0)"/>
     <use xlink:href="#DejaVuSans-74" transform="translate(3080.130859 0)"/>
     <use xlink:href="#DejaVuSans-6f" transform="translate(3119.339844 0)"/>
     <use xlink:href="#DejaVuSans-72" transform="translate(3180.521484 0)"/>
     <use xlink:href="#DejaVuSans-20" transform="translate(3221.634766 0)"/>
     <use xlink:href="#DejaVuSans-32" transform="translate(3253.421875 0)"/>
     <use xlink:href="#DejaVuSans-20" transform="translate(3317.044922 0)"/>
     <use xlink:href="#DejaVuSans-6e" transform="translate(3348.832031 0)"/>
     <use xlink:href="#DejaVuSans-61" transform="translate(3412.210938 0)"/>
     <use xlink:href="#DejaVuSans-20" transform="translate(3473.490234 0)"/>
     <use xlink:href="#DejaVuSans-74" transform="translate(3505.277344 0)"/>
     <use xlink:href="#DejaVuSans-61" transform="translate(3544.486328 0)"/>
     <use xlink:href="#DejaVuSans-78" transform="translate(3605.765625 0)"/>
     <use xlink:href="#DejaVuSans-61" transform="translate(3664.945312 0)"/>
     <use xlink:href="#DejaVuSans-20" transform="translate(3726.224609 0)"/>
     <use xlink:href="#DejaVuSans-64" transform="translate(3758.011719 0)"/>
     <use xlink:href="#DejaVuSans-65" transform="translate(3821.488281 0)"/>
     <use xlink:href="#DejaVuSans-20" transform="translate(3883.011719 0)"/>
     <use xlink:href="#DejaVuSans-61" transform="translate(3914.798828 0)"/>
     <use xlink:href="#DejaVuSans-70" transform="translate(3976.078125 0)"/>
     <use xlink:href="#DejaVuSans-72" transform="translate(4039.554688 0)"/>
     <use xlink:href="#DejaVuSans-65" transform="translate(4078.417969 0)"/>
     <use xlink:href="#DejaVuSans-6e" transform="translate(4139.941406 0)"/>
     <use xlink:href="#DejaVuSans-64" transform="translate(4203.320312 0)"/>
     <use xlink:href="#DejaVuSans-69" transform="translate(4266.796875 0)"/>
     <use xlink:href="#DejaVuSans-7a" transform="translate(4294.580078 0)"/>
     <use xlink:href="#DejaVuSans-61" transform="translate(4347.070312 0)"/>
     <use xlink:href="#DejaVuSans-64" transform="translate(4408.349609 0)"/>
     <use xlink:href="#DejaVuSans-6f" transform="translate(4471.826172 0)"/>
     <use xlink:href="#DejaVuSans-2e" transform="translate(4531.257812 0)"/>
    </g>
    <!-- O ramo tracejado (sign) só é usado na predição: sua derivada é nula em quase todo ponto, por isso o treinamento retropropaga a partir de L. -->
    <g style="fill: #666666" transform="translate(234.966094 485.651587) scale(0.085 -0.085)">
     <defs>
      <path id="DejaVuSans-6a" d="M 603 3500 
L 1178 3500 
L 1178 -63 
Q 1178 -731 923 -1031 
Q 669 -1331 103 -1331 
L -116 -1331 
L -116 -844 
L 38 -844 
Q 366 -844 484 -692 
Q 603 -541 603 -63 
L 603 3500 
z
M 603 4863 
L 1178 4863 
L 1178 4134 
L 603 4134 
L 603 4863 
z
" transform="scale(0.015625)"/>
      <path id="DejaVuSans-f3" d="M 1959 3097 
Q 1497 3097 1228 2736 
Q 959 2375 959 1747 
Q 959 1119 1226 758 
Q 1494 397 1959 397 
Q 2419 397 2687 759 
Q 2956 1122 2956 1747 
Q 2956 2369 2687 2733 
Q 2419 3097 1959 3097 
z
M 1959 3584 
Q 2709 3584 3137 3096 
Q 3566 2609 3566 1747 
Q 3566 888 3137 398 
Q 2709 -91 1959 -91 
Q 1206 -91 779 398 
Q 353 888 353 1747 
Q 353 2609 779 3096 
Q 1206 3584 1959 3584 
z
M 2394 5119 
L 3016 5119 
L 1997 3944 
L 1519 3944 
L 2394 5119 
z
" transform="scale(0.015625)"/>
      <path id="DejaVuSans-e9" d="M 3597 1894 
L 3597 1613 
L 953 1613 
Q 991 1019 1311 708 
Q 1631 397 2203 397 
Q 2534 397 2845 478 
Q 3156 559 3463 722 
L 3463 178 
Q 3153 47 2828 -22 
Q 2503 -91 2169 -91 
Q 1331 -91 842 396 
Q 353 884 353 1716 
Q 353 2575 817 3079 
Q 1281 3584 2069 3584 
Q 2775 3584 3186 3129 
Q 3597 2675 3597 1894 
z
M 3022 2063 
Q 3016 2534 2758 2815 
Q 2500 3097 2075 3097 
Q 1594 3097 1305 2825 
Q 1016 2553 972 2059 
L 3022 2063 
z
M 2469 5119 
L 3091 5119 
L 2072 3944 
L 1594 3944 
L 2469 5119 
z
" transform="scale(0.015625)"/>
      <path id="DejaVuSans-75" d="M 544 1381 
L 544 3500 
L 1119 3500 
L 1119 1403 
Q 1119 906 1312 657 
Q 1506 409 1894 409 
Q 2359 409 2629 706 
Q 2900 1003 2900 1516 
L 2900 3500 
L 3475 3500 
L 3475 0 
L 2900 0 
L 2900 538 
Q 2691 219 2414 64 
Q 2138 -91 1772 -91 
Q 1169 -91 856 284 
Q 544 659 544 1381 
z
M 1991 3584 
L 1991 3584 
z
" transform="scale(0.015625)"/>
      <path id="DejaVuSans-e7" d="M 3122 3366 
L 3122 2828 
Q 2878 2963 2633 3030 
Q 2388 3097 2138 3097 
Q 1578 3097 1268 2742 
Q 959 2388 959 1747 
Q 959 1106 1268 751 
Q 1578 397 2138 397 
Q 2388 397 2633 464 
Q 2878 531 3122 666 
L 3122 134 
Q 2881 22 2623 -34 
Q 2366 -91 2075 -91 
Q 1284 -91 818 406 
Q 353 903 353 1747 
Q 353 2603 823 3093 
Q 1294 3584 2113 3584 
Q 2378 3584 2631 3529 
Q 2884 3475 3122 3366 
z
M 2309 0 
Q 2481 -194 2565 -358 
Q 2650 -522 2650 -672 
Q 2650 -950 2462 -1092 
Q 2275 -1234 1906 -1234 
Q 1763 -1234 1627 -1215 
Q 1491 -1197 1356 -1159 
L 1356 -750 
Q 1463 -803 1578 -826 
Q 1694 -850 1841 -850 
Q 2025 -850 2119 -775 
Q 2213 -700 2213 -556 
Q 2213 -463 2145 -327 
Q 2078 -191 1938 0 
L 2309 0 
z
" transform="scale(0.015625)"/>
      <path id="DejaVuSans-e3" d="M 2194 1759 
Q 1497 1759 1228 1600 
Q 959 1441 959 1056 
Q 959 750 1161 570 
Q 1363 391 1709 391 
Q 2188 391 2477 730 
Q 2766 1069 2766 1631 
L 2766 1759 
L 2194 1759 
z
M 3341 1997 
L 3341 0 
L 2766 0 
L 2766 531 
Q 2569 213 2275 61 
Q 1981 -91 1556 -91 
Q 1019 -91 701 211 
Q 384 513 384 1019 
Q 384 1609 779 1909 
Q 1175 2209 1959 2209 
L 2766 2209 
L 2766 2266 
Q 2766 2663 2505 2880 
Q 2244 3097 1772 3097 
Q 1472 3097 1187 3025 
Q 903 2953 641 2809 
L 641 3341 
Q 956 3463 1253 3523 
Q 1550 3584 1831 3584 
Q 2591 3584 2966 3190 
Q 3341 2797 3341 1997 
z
M 1844 4281 
L 1666 4453 
Q 1597 4516 1545 4545 
Q 1494 4575 1453 4575 
Q 1334 4575 1278 4461 
Q 1222 4347 1216 4091 
L 825 4091 
Q 831 4513 990 4742 
Q 1150 4972 1434 4972 
Q 1553 4972 1653 4928 
Q 1753 4884 1869 4781 
L 2047 4609 
Q 2116 4547 2167 4517 
Q 2219 4488 2259 4488 
Q 2378 4488 2434 4602 
Q 2491 4716 2497 4972 
L 2888 4972 
Q 2881 4550 2722 4320 
Q 2563 4091 2278 4091 
Q 2159 4091 2059 4134 
Q 1959 4178 1844 4281 
z
" transform="scale(0.015625)"/>
      <path id="DejaVuSans-3a" d="M 750 794 
L 1409 794 
L 1409 0 
L 750 0 
L 750 794 
z
M 750 3309 
L 1409 3309 
L 1409 2516 
L 750 2516 
L 750 3309 
z
" transform="scale(0.015625)"/>
      <path id="DejaVuSans-71" d="M 947 1747 
Q 947 1113 1208 752 
Q 1469 391 1925 391 
Q 2381 391 2643 752 
Q 2906 1113 2906 1747 
Q 2906 2381 2643 2742 
Q 2381 3103 1925 3103 
Q 1469 3103 1208 2742 
Q 947 2381 947 1747 
z
M 2906 525 
Q 2725 213 2448 61 
Q 2172 -91 1784 -91 
Q 1150 -91 751 415 
Q 353 922 353 1747 
Q 353 2572 751 3078 
Q 1150 3584 1784 3584 
Q 2172 3584 2448 3432 
Q 2725 3281 2906 2969 
L 2906 3500 
L 3481 3500 
L 3481 -1331 
L 2906 -1331 
L 2906 525 
z
" transform="scale(0.015625)"/>
     </defs>
     <use xlink:href="#DejaVuSans-4f"/>
     <use xlink:href="#DejaVuSans-20" transform="translate(78.710938 0)"/>
     <use xlink:href="#DejaVuSans-72" transform="translate(110.498047 0)"/>
     <use xlink:href="#DejaVuSans-61" transform="translate(151.611328 0)"/>
     <use xlink:href="#DejaVuSans-6d" transform="translate(212.890625 0)"/>
     <use xlink:href="#DejaVuSans-6f" transform="translate(310.302734 0)"/>
     <use xlink:href="#DejaVuSans-20" transform="translate(371.484375 0)"/>
     <use xlink:href="#DejaVuSans-74" transform="translate(403.271484 0)"/>
     <use xlink:href="#DejaVuSans-72" transform="translate(442.480469 0)"/>
     <use xlink:href="#DejaVuSans-61" transform="translate(483.59375 0)"/>
     <use xlink:href="#DejaVuSans-63" transform="translate(544.873047 0)"/>
     <use xlink:href="#DejaVuSans-65" transform="translate(599.853516 0)"/>
     <use xlink:href="#DejaVuSans-6a" transform="translate(661.376953 0)"/>
     <use xlink:href="#DejaVuSans-61" transform="translate(689.160156 0)"/>
     <use xlink:href="#DejaVuSans-64" transform="translate(750.439453 0)"/>
     <use xlink:href="#DejaVuSans-6f" transform="translate(813.916016 0)"/>
     <use xlink:href="#DejaVuSans-20" transform="translate(875.097656 0)"/>
     <use xlink:href="#DejaVuSans-28" transform="translate(906.884766 0)"/>
     <use xlink:href="#DejaVuSans-73" transform="translate(945.898438 0)"/>
     <use xlink:href="#DejaVuSans-69" transform="translate(997.998047 0)"/>
     <use xlink:href="#DejaVuSans-67" transform="translate(1025.78125 0)"/>
     <use xlink:href="#DejaVuSans-6e" transform="translate(1089.257812 0)"/>
     <use xlink:href="#DejaVuSans-29" transform="translate(1152.636719 0)"/>
     <use xlink:href="#DejaVuSans-20" transform="translate(1191.650391 0)"/>
     <use xlink:href="#DejaVuSans-73" transform="translate(1223.4375 0)"/>
     <use xlink:href="#DejaVuSans-f3" transform="translate(1275.537109 0)"/>
     <use xlink:href="#DejaVuSans-20" transform="translate(1336.71875 0)"/>
     <use xlink:href="#DejaVuSans-e9" transform="translate(1368.505859 0)"/>
     <use xlink:href="#DejaVuSans-20" transform="translate(1430.029297 0)"/>
     <use xlink:href="#DejaVuSans-75" transform="translate(1461.816406 0)"/>
     <use xlink:href="#DejaVuSans-73" transform="translate(1525.195312 0)"/>
     <use xlink:href="#DejaVuSans-61" transform="translate(1577.294922 0)"/>
     <use xlink:href="#DejaVuSans-64" transform="translate(1638.574219 0)"/>
     <use xlink:href="#DejaVuSans-6f" transform="translate(1702.050781 0)"/>
     <use xlink:href="#DejaVuSans-20" transform="translate(1763.232422 0)"/>
     <use xlink:href="#DejaVuSans-6e" transform="translate(1795.019531 0)"/>
     <use xlink:href="#DejaVuSans-61" transform="translate(1858.398438 0)"/>
     <use xlink:href="#DejaVuSans-20" transform="translate(1919.677734 0)"/>
     <use xlink:href="#DejaVuSans-70" transform="translate(1951.464844 0)"/>
     <use xlink:href="#DejaVuSans-72" transform="translate(2014.941406 0)"/>
     <use xlink:href="#DejaVuSans-65" transform="translate(2053.804688 0)"/>
     <use xlink:href="#DejaVuSans-64" transform="translate(2115.328125 0)"/>
     <use xlink:href="#DejaVuSans-69" transform="translate(2178.804688 0)"/>
     <use xlink:href="#DejaVuSans-e7" transform="translate(2206.587891 0)"/>
     <use xlink:href="#DejaVuSans-e3" transform="translate(2261.568359 0)"/>
     <use xlink:href="#DejaVuSans-6f" transform="translate(2322.847656 0)"/>
     <use xlink:href="#DejaVuSans-3a" transform="translate(2384.029297 0)"/>
     <use xlink:href="#DejaVuSans-20" transform="translate(2417.720703 0)"/>
     <use xlink:href="#DejaVuSans-73" transform="translate(2449.507812 0)"/>
     <use xlink:href="#DejaVuSans-75" transform="translate(2501.607422 0)"/>
     <use xlink:href="#DejaVuSans-61" transform="translate(2564.986328 0)"/>
     <use xlink:href="#DejaVuSans-20" transform="translate(2626.265625 0)"/>
     <use xlink:href="#DejaVuSans-64" transform="translate(2658.052734 0)"/>
     <use xlink:href="#DejaVuSans-65" transform="translate(2721.529297 0)"/>
     <use xlink:href="#DejaVuSans-72" transform="translate(2783.052734 0)"/>
     <use xlink:href="#DejaVuSans-69" transform="translate(2824.166016 0)"/>
     <use xlink:href="#DejaVuSans-76" transform="translate(2851.949219 0)"/>
     <use xlink:href="#DejaVuSans-61" transform="translate(2911.128906 0)"/>
     <use xlink:href="#DejaVuSans-64" transform="translate(2972.408203 0)"/>
     <use xlink:href="#DejaVuSans-61" transform="translate(3035.884766 0)"/>
     <use xlink:href="#DejaVuSans-20" transform="translate(3097.164062 0)"/>
     <use xlink:href="#DejaVuSans-e9" transform="translate(3128.951172 0)"/>
     <use xlink:href="#DejaVuSans-20" transform="translate(3190.474609 0)"/>
     <use xlink:href="#DejaVuSans-6e" transform="translate(3222.261719 0)"/>
     <use xlink:href="#DejaVuSans-75" transform="translate(3285.640625 0)"/>
     <use xlink:href="#DejaVuSans-6c" transform="translate(3349.019531 0)"/>
     <use xlink:href="#DejaVuSans-61" transform="translate(3376.802734 0)"/>
     <use xlink:href="#DejaVuSans-20" transform="translate(3438.082031 0)"/>
     <use xlink:href="#DejaVuSans-65" transform="translate(3469.869141 0)"/>
     <use xlink:href="#DejaVuSans-6d" transform="translate(3531.392578 0)"/>
     <use xlink:href="#DejaVuSans-20" transform="translate(3628.804688 0)"/>
     <use xlink:href="#DejaVuSans-71" transform="translate(3660.591797 0)"/>
     <use xlink:href="#DejaVuSans-75" transform="translate(3724.068359 0)"/>
     <use xlink:href="#DejaVuSans-61" transform="translate(3787.447266 0)"/>
     <use xlink:href="#DejaVuSans-73" transform="translate(3848.726562 0)"/>
     <use xlink:href="#DejaVuSans-65" transform="translate(3900.826172 0)"/>
     <use xlink:href="#DejaVuSans-20" transform="translate(3962.349609 0)"/>
     <use xlink:href="#DejaVuSans-74" transform="translate(3994.136719 0)"/>
     <use xlink:href="#DejaVuSans-6f" transform="translate(4033.345703 0)"/>
     <use xlink:href="#DejaVuSans-64" transform="translate(4094.527344 0)"/>
     <use xlink:href="#DejaVuSans-6f" transform="translate(4158.003906 0)"/>
     <use xlink:href="#DejaVuSans-20" transform="translate(4219.185547 0)"/>
     <use xlink:href="#DejaVuSans-70" transform="translate(4250.972656 0)"/>
     <use xlink:href="#DejaVuSans-6f" transform="translate(4314.449219 0)"/>
     <use xlink:href="#DejaVuSans-6e" transform="translate(4375.630859 0)"/>
     <use xlink:href="#DejaVuSans-74" transform="translate(4439.009766 0)"/>
     <use xlink:href="#DejaVuSans-6f" transform="translate(4478.21875 0)"/>
     <use xlink:href="#DejaVuSans-2c" transform="translate(4539.400391 0)"/>
     <use xlink:href="#DejaVuSans-20" transform="translate(4571.1875 0)"/>
     <use xlink:href="#DejaVuSans-70" transform="translate(4602.974609 0)"/>
     <use xlink:href="#DejaVuSans-6f" transform="translate(4666.451172 0)"/>
     <use xlink:href="#DejaVuSans-72" transform="translate(4727.632812 0)"/>
     <use xlink:href="#DejaVuSans-20" transform="translate(4768.746094 0)"/>
     <use xlink:href="#DejaVuSans-69" transform="translate(4800.533203 0)"/>
     <use xlink:href="#DejaVuSans-73" transform="translate(4828.316406 0)"/>
     <use xlink:href="#DejaVuSans-73" transform="translate(4880.416016 0)"/>
     <use xlink:href="#DejaVuSans-6f" transform="translate(4932.515625 0)"/>
     <use xlink:href="#DejaVuSans-20" transform="translate(4993.697266 0)"/>
     <use xlink:href="#DejaVuSans-6f" transform="translate(5025.484375 0)"/>
     <use xlink:href="#DejaVuSans-20" transform="translate(5086.666016 0)"/>
     <use xlink:href="#DejaVuSans-74" transform="translate(5118.453125 0)"/>
     <use xlink:href="#DejaVuSans-72" transform="translate(5157.662109 0)"/>
     <use xlink:href="#DejaVuSans-65" transform="translate(5196.525391 0)"/>
     <use xlink:href="#DejaVuSans-69" transform="translate(5258.048828 0)"/>
     <use xlink:href="#DejaVuSans-6e" transform="translate(5285.832031 0)"/>
     <use xlink:href="#DejaVuSans-61" transform="translate(5349.210938 0)"/>
     <use xlink:href="#DejaVuSans-6d" transform="translate(5410.490234 0)"/>
     <use xlink:href="#DejaVuSans-65" transform="translate(5507.902344 0)"/>
     <use xlink:href="#DejaVuSans-6e" transform="translate(5569.425781 0)"/>
     <use xlink:href="#DejaVuSans-74" transform="translate(5632.804688 0)"/>
     <use xlink:href="#DejaVuSans-6f" transform="translate(5672.013672 0)"/>
     <use xlink:href="#DejaVuSans-20" transform="translate(5733.195312 0)"/>
     <use xlink:href="#DejaVuSans-72" transform="translate(5764.982422 0)"/>
     <use xlink:href="#DejaVuSans-65" transform="translate(5803.845703 0)"/>
     <use xlink:href="#DejaVuSans-74" transform="translate(5865.369141 0)"/>
     <use xlink:href="#DejaVuSans-72" transform="translate(5904.578125 0)"/>
     <use xlink:href="#DejaVuSans-6f" transform="translate(5943.441406 0)"/>
     <use xlink:href="#DejaVuSans-70" transform="translate(6004.623047 0)"/>
     <use xlink:href="#DejaVuSans-72" transform="translate(6068.099609 0)"/>
     <use xlink:href="#DejaVuSans-6f" transform="translate(6106.962891 0)"/>
     <use xlink:href="#DejaVuSans-70" transform="translate(6168.144531 0)"/>
     <use xlink:href="#DejaVuSans-61" transform="translate(6231.621094 0)"/>
     <use xlink:href="#DejaVuSans-67" transform="translate(6292.900391 0)"/>
     <use xlink:href="#DejaVuSans-61" transform="translate(6356.376953 0)"/>
     <use xlink:href="#DejaVuSans-20" transform="translate(6417.65625 0)"/>
     <use xlink:href="#DejaVuSans-61" transform="translate(6449.443359 0)"/>
     <use xlink:href="#DejaVuSans-20" transform="translate(6510.722656 0)"/>
     <use xlink:href="#DejaVuSans-70" transform="translate(6542.509766 0)"/>
     <use xlink:href="#DejaVuSans-61" transform="translate(6605.986328 0)"/>
     <use xlink:href="#DejaVuSans-72" transform="translate(6667.265625 0)"/>
     <use xlink:href="#DejaVuSans-74" transform="translate(6708.378906 0)"/>
     <use xlink:href="#DejaVuSans-69" transform="translate(6747.587891 0)"/>
     <use xlink:href="#DejaVuSans-72" transform="translate(6775.371094 0)"/>
     <use xlink:href="#DejaVuSans-20" transform="translate(6816.484375 0)"/>
     <use xlink:href="#DejaVuSans-64" transform="translate(6848.271484 0)"/>
     <use xlink:href="#DejaVuSans-65" transform="translate(6911.748047 0)"/>
     <use xlink:href="#DejaVuSans-20" transform="translate(6973.271484 0)"/>
     <use xlink:href="#DejaVuSans-4c" transform="translate(7005.058594 0)"/>
     <use xlink:href="#DejaVuSans-2e" transform="translate(7060.771484 0)"/>
    </g>
   </g>
   <g id="text_18">
    <!-- Grafo computacional — exemplo 3:  neurônio  $y = w_0 + w_1 x_0 + w_2 x_1$,   $L = (y - d)^2$,   $nn(w,x) = sign(y)$ -->
    <g transform="translate(183.88 19.94) scale(0.14 -0.14)">
     <defs>
      <path id="DejaVuSans-47" d="M 3809 666 
L 3809 1919 
L 2778 1919 
L 2778 2438 
L 4434 2438 
L 4434 434 
Q 4069 175 3628 42 
Q 3188 -91 2688 -91 
Q 1594 -91 976 548 
Q 359 1188 359 2328 
Q 359 3472 976 4111 
Q 1594 4750 2688 4750 
Q 3144 4750 3555 4637 
Q 3966 4525 4313 4306 
L 4313 3634 
Q 3963 3931 3569 4081 
Q 3175 4231 2741 4231 
Q 1884 4231 1454 3753 
Q 1025 3275 1025 2328 
Q 1025 1384 1454 906 
Q 1884 428 2741 428 
Q 3075 428 3337 486 
Q 3600 544 3809 666 
z
" transform="scale(0.015625)"/>
      <path id="DejaVuSansDisplay-2014" d="M 313 1978 
L 6088 1978 
L 6088 1528 
L 313 1528 
L 313 1978 
z
" transform="scale(0.015625)"/>
      <path id="DejaVuSans-f4" d="M 1959 3097 
Q 1497 3097 1228 2736 
Q 959 2375 959 1747 
Q 959 1119 1226 758 
Q 1494 397 1959 397 
Q 2419 397 2687 759 
Q 2956 1122 2956 1747 
Q 2956 2369 2687 2733 
Q 2419 3097 1959 3097 
z
M 1959 3584 
Q 2709 3584 3137 3096 
Q 3566 2609 3566 1747 
Q 3566 888 3137 398 
Q 2709 -91 1959 -91 
Q 1206 -91 779 398 
Q 353 888 353 1747 
Q 353 2609 779 3096 
Q 1206 3584 1959 3584 
z
M 1728 5119 
L 2191 5119 
L 2956 3944 
L 2522 3944 
L 1959 4709 
L 1397 3944 
L 963 3944 
L 1728 5119 
z
" transform="scale(0.015625)"/>
     </defs>
     <use xlink:href="#DejaVuSans-47" transform="translate(0 0.765625)"/>
     <use xlink:href="#DejaVuSans-72" transform="translate(77.490234 0.765625)"/>
     <use xlink:href="#DejaVuSans-61" transform="translate(118.603516 0.765625)"/>
     <use xlink:href="#DejaVuSans-66" transform="translate(179.882812 0.765625)"/>
     <use xlink:href="#DejaVuSans-6f" transform="translate(215.087891 0.765625)"/>
     <use xlink:href="#DejaVuSans-20" transform="translate(276.269531 0.765625)"/>
     <use xlink:href="#DejaVuSans-63" transform="translate(308.056641 0.765625)"/>
     <use xlink:href="#DejaVuSans-6f" transform="translate(363.037109 0.765625)"/>
     <use xlink:href="#DejaVuSans-6d" transform="translate(424.21875 0.765625)"/>
     <use xlink:href="#DejaVuSans-70" transform="translate(521.630859 0.765625)"/>
     <use xlink:href="#DejaVuSans-75" transform="translate(585.107422 0.765625)"/>
     <use xlink:href="#DejaVuSans-74" transform="translate(648.486328 0.765625)"/>
     <use xlink:href="#DejaVuSans-61" transform="translate(687.695312 0.765625)"/>
     <use xlink:href="#DejaVuSans-63" transform="translate(748.974609 0.765625)"/>
     <use xlink:href="#DejaVuSans-69" transform="translate(803.955078 0.765625)"/>
     <use xlink:href="#DejaVuSans-6f" transform="translate(831.738281 0.765625)"/>
     <use xlink:href="#DejaVuSans-6e" transform="translate(892.919922 0.765625)"/>
     <use xlink:href="#DejaVuSans-61" transform="translate(956.298828 0.765625)"/>
     <use xlink:href="#DejaVuSans-6c" transform="translate(1017.578125 0.765625)"/>
     <use xlink:href="#DejaVuSans-20" transform="translate(1045.361328 0.765625)"/>
     <use xlink:href="#DejaVuSansDisplay-2014" transform="translate(1077.148438 0.765625)"/>
     <use xlink:href="#DejaVuSans-20" transform="translate(1177.148438 0.765625)"/>
     <use xlink:href="#DejaVuSans-65" transform="translate(1208.935547 0.765625)"/>
     <use xlink:href="#DejaVuSans-78" transform="translate(1270.458984 0.765625)"/>
     <use xlink:href="#DejaVuSans-65" transform="translate(1329.638672 0.765625)"/>
     <use xlink:href="#DejaVuSans-6d" transform="translate(1391.162109 0.765625)"/>
     <use xlink:href="#DejaVuSans-70" transform="translate(1488.574219 0.765625)"/>
     <use xlink:href="#DejaVuSans-6c" transform="translate(1552.050781 0.765625)"/>
     <use xlink:href="#DejaVuSans-6f" transform="translate(1579.833984 0.765625)"/>
     <use xlink:href="#DejaVuSans-20" transform="translate(1641.015625 0.765625)"/>
     <use xlink:href="#DejaVuSans-33" transform="translate(1672.802734 0.765625)"/>
     <use xlink:href="#DejaVuSans-3a" transform="translate(1736.425781 0.765625)"/>
     <use xlink:href="#DejaVuSans-20" transform="translate(1770.117188 0.765625)"/>
     <use xlink:href="#DejaVuSans-20" transform="translate(1801.904297 0.765625)"/>
     <use xlink:href="#DejaVuSans-6e" transform="translate(1833.691406 0.765625)"/>
     <use xlink:href="#DejaVuSans-65" transform="translate(1897.070312 0.765625)"/>
     <use xlink:href="#DejaVuSans-75" transform="translate(1958.59375 0.765625)"/>
     <use xlink:href="#DejaVuSans-72" transform="translate(2021.972656 0.765625)"/>
     <use xlink:href="#DejaVuSans-f4" transform="translate(2063.085938 0.765625)"/>
     <use xlink:href="#DejaVuSans-6e" transform="translate(2124.267578 0.765625)"/>
     <use xlink:href="#DejaVuSans-69" transform="translate(2187.646484 0.765625)"/>
     <use xlink:href="#DejaVuSans-6f" transform="translate(2215.429688 0.765625)"/>
     <use xlink:href="#DejaVuSans-20" transform="translate(2276.611328 0.765625)"/>
     <use xlink:href="#DejaVuSans-20" transform="translate(2308.398438 0.765625)"/>
     <use xlink:href="#DejaVuSans-Oblique-79" transform="translate(2340.185547 0.765625)"/>
     <use xlink:href="#DejaVuSans-3d" transform="translate(2418.847656 0.765625)"/>
     <use xlink:href="#DejaVuSans-Oblique-77" transform="translate(2522.119141 0.765625)"/>
     <use xlink:href="#DejaVuSans-30" transform="translate(2603.90625 -15.640625) scale(0.7)"/>
     <use xlink:href="#DejaVuSans-2b" transform="translate(2670.65918 0.765625)"/>
     <use xlink:href="#DejaVuSans-Oblique-77" transform="translate(2773.930664 0.765625)"/>
     <use xlink:href="#DejaVuSans-31" transform="translate(2855.717773 -15.640625) scale(0.7)"/>
     <use xlink:href="#DejaVuSans-Oblique-78" transform="translate(2902.988281 0.765625)"/>
     <use xlink:href="#DejaVuSans-30" transform="translate(2962.167969 -15.640625) scale(0.7)"/>
     <use xlink:href="#DejaVuSans-2b" transform="translate(3028.920898 0.765625)"/>
     <use xlink:href="#DejaVuSans-Oblique-77" transform="translate(3132.192383 0.765625)"/>
     <use xlink:href="#DejaVuSans-32" transform="translate(3213.979492 -15.640625) scale(0.7)"/>
     <use xlink:href="#DejaVuSans-Oblique-78" transform="translate(3261.25 0.765625)"/>
     <use xlink:href="#DejaVuSans-31" transform="translate(3320.429688 -15.640625) scale(0.7)"/>
     <use xlink:href="#DejaVuSans-2c" transform="translate(3367.700195 0.765625)"/>
     <use xlink:href="#DejaVuSans-20" transform="translate(3399.487305 0.765625)"/>
     <use xlink:href="#DejaVuSans-20" transform="translate(3431.274414 0.765625)"/>
     <use xlink:href="#DejaVuSans-20" transform="translate(3463.061523 0.765625)"/>
     <use xlink:href="#DejaVuSans-Oblique-4c" transform="translate(3494.848633 0.765625)"/>
     <use xlink:href="#DejaVuSans-3d" transform="translate(3570.043945 0.765625)"/>
     <use xlink:href="#DejaVuSans-28" transform="translate(3673.31543 0.765625)"/>
     <use xlink:href="#DejaVuSans-Oblique-79" transform="translate(3712.329102 0.765625)"/>
     <use xlink:href="#DejaVuSans-2212" transform="translate(3790.991211 0.765625)"/>
     <use xlink:href="#DejaVuSans-Oblique-64" transform="translate(3894.262695 0.765625)"/>
     <use xlink:href="#DejaVuSans-29" transform="translate(3957.739258 0.765625)"/>
     <use xlink:href="#DejaVuSans-32" transform="translate(3997.709961 39.046875) scale(0.7)"/>
     <use xlink:href="#DejaVuSans-2c" transform="translate(4044.980469 0.765625)"/>
     <use xlink:href="#DejaVuSans-20" transform="translate(4076.767578 0.765625)"/>
     <use xlink:href="#DejaVuSans-20" transform="translate(4108.554688 0.765625)"/>
     <use xlink:href="#DejaVuSans-20" transform="translate(4140.341797 0.765625)"/>
     <use xlink:href="#DejaVuSans-Oblique-6e" transform="translate(4172.128906 0.765625)"/>
     <use xlink:href="#DejaVuSans-Oblique-6e" transform="translate(4235.507812 0.765625)"/>
     <use xlink:href="#DejaVuSans-28" transform="translate(4298.886719 0.765625)"/>
     <use xlink:href="#DejaVuSans-Oblique-77" transform="translate(4337.900391 0.765625)"/>
     <use xlink:href="#DejaVuSans-2c" transform="translate(4419.6875 0.765625)"/>
     <use xlink:href="#DejaVuSans-Oblique-78" transform="translate(4470.957031 0.765625)"/>
     <use xlink:href="#DejaVuSans-29" transform="translate(4530.136719 0.765625)"/>
     <use xlink:href="#DejaVuSans-3d" transform="translate(4588.632812 0.765625)"/>
     <use xlink:href="#DejaVuSans-Oblique-73" transform="translate(4691.904297 0.765625)"/>
     <use xlink:href="#DejaVuSans-Oblique-69" transform="translate(4744.003906 0.765625)"/>
     <use xlink:href="#DejaVuSans-Oblique-67" transform="translate(4771.787109 0.765625)"/>
     <use xlink:href="#DejaVuSans-Oblique-6e" transform="translate(4835.263672 0.765625)"/>
     <use xlink:href="#DejaVuSans-28" transform="translate(4898.642578 0.765625)"/>
     <use xlink:href="#DejaVuSans-Oblique-79" transform="translate(4937.65625 0.765625)"/>
     <use xlink:href="#DejaVuSans-29" transform="translate(4996.835938 0.765625)"/>
    </g>
   </g>
   <g id="text_19">
    <g id="patch_16">
     <path d="M 204.450999 95.409527 
L 217.290999 95.409527 
Q 218.730999 95.409527 218.730999 93.969527 
L 218.730999 82.355777 
Q 218.730999 80.915777 217.290999 80.915777 
L 204.450999 80.915777 
Q 203.010999 80.915777 203.010999 82.355777 
L 203.010999 93.969527 
Q 203.010999 95.409527 204.450999 95.409527 
z
" style="fill: #ffffff; opacity: 0.85"/>
    </g>
    <!-- $x_0$ -->
    <g transform="translate(204.450999 91.473902) scale(0.12 -0.12)">
     <use xlink:href="#DejaVuSans-Oblique-78" transform="translate(0 0.3125)"/>
     <use xlink:href="#DejaVuSans-30" transform="translate(59.179688 -16.09375) scale(0.7)"/>
    </g>
   </g>
   <g id="text_20">
    <g id="patch_17">
     <path d="M 206.522575 134.523153 
L 222.122575 134.523153 
Q 223.562575 134.523153 223.562575 133.083153 
L 223.562575 121.469403 
Q 223.562575 120.029403 222.122575 120.029403 
L 206.522575 120.029403 
Q 205.082575 120.029403 205.082575 121.469403 
L 205.082575 133.083153 
Q 205.082575 134.523153 206.522575 134.523153 
z
" style="fill: #ffffff; opacity: 0.85"/>
    </g>
    <!-- $w_1$ -->
    <g transform="translate(206.522575 130.587528) scale(0.12 -0.12)">
     <use xlink:href="#DejaVuSans-Oblique-77" transform="translate(0 0.3125)"/>
     <use xlink:href="#DejaVuSans-31" transform="translate(81.787109 -16.09375) scale(0.7)"/>
    </g>
   </g>
   <g id="text_21">
    <g id="patch_18">
     <path d="M 203.586473 160.593558 
L 260.886473 160.593558 
Q 262.086473 160.593558 262.086473 159.393558 
L 262.086473 149.393558 
Q 262.086473 148.193558 260.886473 148.193558 
L 203.586473 148.193558 
Q 202.386473 148.193558 202.386473 149.393558 
L 202.386473 159.393558 
Q 202.386473 160.593558 203.586473 160.593558 
z
" style="fill: #ffffff; opacity: 0.85"/>
    </g>
    <!-- $grad\_s0 \cdot x_0$ -->
    <g style="fill: #dc143c" transform="translate(203.586473 156.993558) scale(0.1 -0.1)">
     <use xlink:href="#DejaVuSans-Oblique-67" transform="translate(0 0.015625)"/>
     <use xlink:href="#DejaVuSans-Oblique-72" transform="translate(63.476562 0.015625)"/>
     <use xlink:href="#DejaVuSans-Oblique-61" transform="translate(104.589844 0.015625)"/>
     <use xlink:href="#DejaVuSans-Oblique-64" transform="translate(165.869141 0.015625)"/>
     <use xlink:href="#DejaVuSans-5f" transform="translate(229.345703 0.015625)"/>
     <use xlink:href="#DejaVuSans-Oblique-73" transform="translate(279.345703 0.015625)"/>
     <use xlink:href="#DejaVuSans-30" transform="translate(331.445312 0.015625)"/>
     <use xlink:href="#DejaVuSans-22c5" transform="translate(414.550781 0.015625)"/>
     <use xlink:href="#DejaVuSans-Oblique-78" transform="translate(465.820312 0.015625)"/>
     <use xlink:href="#DejaVuSans-30" transform="translate(525 -16.390625) scale(0.7)"/>
    </g>
   </g>
   <g id="text_22">
    <g id="patch_19">
     <path d="M 215.579682 325.914099 
L 228.419682 325.914099 
Q 229.859682 325.914099 229.859682 324.474099 
L 229.859682 312.860349 
Q 229.859682 311.420349 228.419682 311.420349 
L 215.579682 311.420349 
Q 214.139682 311.420349 214.139682 312.860349 
L 214.139682 324.474099 
Q 214.139682 325.914099 215.579682 325.914099 
z
" style="fill: #ffffff; opacity: 0.85"/>
    </g>
    <!-- $x_1$ -->
    <g transform="translate(215.579682 321.978474) scale(0.12 -0.12)">
     <use xlink:href="#DejaVuSans-Oblique-78" transform="translate(0 0.3125)"/>
     <use xlink:href="#DejaVuSans-31" transform="translate(59.179688 -16.09375) scale(0.7)"/>
    </g>
   </g>
   <g id="text_23">
    <g id="patch_20">
     <path d="M 206.522575 362.369517 
L 222.122575 362.369517 
Q 223.562575 362.369517 223.562575 360.929517 
L 223.562575 349.315767 
Q 223.562575 347.875767 222.122575 347.875767 
L 206.522575 347.875767 
Q 205.082575 347.875767 205.082575 349.315767 
L 205.082575 360.929517 
Q 205.082575 362.369517 206.522575 362.369517 
z
" style="fill: #ffffff; opacity: 0.85"/>
    </g>
    <!-- $w_2$ -->
    <g transform="translate(206.522575 358.433892) scale(0.12 -0.12)">
     <use xlink:href="#DejaVuSans-Oblique-77" transform="translate(0 0.3125)"/>
     <use xlink:href="#DejaVuSans-32" transform="translate(81.787109 -16.09375) scale(0.7)"/>
    </g>
   </g>
   <g id="text_24">
    <g id="patch_21">
     <path d="M 194.047601 390.718385 
L 251.347601 390.718385 
Q 252.547601 390.718385 252.547601 389.518385 
L 252.547601 379.518385 
Q 252.547601 378.318385 251.347601 378.318385 
L 194.047601 378.318385 
Q 192.847601 378.318385 192.847601 379.518385 
L 192.847601 389.518385 
Q 192.847601 390.718385 194.047601 390.718385 
z
" style="fill: #ffffff; opacity: 0.85"/>
    </g>
    <!-- $grad\_s1 \cdot x_1$ -->
    <g style="fill: #dc143c" transform="translate(194.047601 387.118385) scale(0.1 -0.1)">
     <use xlink:href="#DejaVuSans-Oblique-67" transform="translate(0 0.015625)"/>
     <use xlink:href="#DejaVuSans-Oblique-72" transform="translate(63.476562 0.015625)"/>
     <use xlink:href="#DejaVuSans-Oblique-61" transform="translate(104.589844 0.015625)"/>
     <use xlink:href="#DejaVuSans-Oblique-64" transform="translate(165.869141 0.015625)"/>
     <use xlink:href="#DejaVuSans-5f" transform="translate(229.345703 0.015625)"/>
     <use xlink:href="#DejaVuSans-Oblique-73" transform="translate(279.345703 0.015625)"/>
     <use xlink:href="#DejaVuSans-31" transform="translate(331.445312 0.015625)"/>
     <use xlink:href="#DejaVuSans-22c5" transform="translate(414.550781 0.015625)"/>
     <use xlink:href="#DejaVuSans-Oblique-78" transform="translate(465.820312 0.015625)"/>
     <use xlink:href="#DejaVuSans-31" transform="translate(525 -16.390625) scale(0.7)"/>
    </g>
   </g>
   <g id="text_25">
    <g id="patch_22">
     <path d="M 380.514456 178.043372 
L 392.514456 178.043372 
Q 393.954456 178.043372 393.954456 176.603372 
L 393.954456 164.989622 
Q 393.954456 163.549622 392.514456 163.549622 
L 380.514456 163.549622 
Q 379.074456 163.549622 379.074456 164.989622 
L 379.074456 176.603372 
Q 379.074456 178.043372 380.514456 178.043372 
z
" style="fill: #ffffff; opacity: 0.85"/>
    </g>
    <!-- $s_0$ -->
    <g transform="translate(380.514456 174.107747) scale(0.12 -0.12)">
     <use xlink:href="#DejaVuSans-Oblique-73"/>
     <use xlink:href="#DejaVuSans-30" transform="translate(52.099609 -16.40625) scale(0.7)"/>
    </g>
   </g>
   <g id="text_26">
    <g id="patch_23">
     <path d="M 319.239357 181.553576 
L 358.839357 181.553576 
Q 360.039357 181.553576 360.039357 180.353576 
L 360.039357 170.353576 
Q 360.039357 169.153576 358.839357 169.153576 
L 319.239357 169.153576 
Q 318.039357 169.153576 318.039357 170.353576 
L 318.039357 180.353576 
Q 318.039357 181.553576 319.239357 181.553576 
z
" style="fill: #ffffff; opacity: 0.85"/>
    </g>
    <!-- $grad\_s2$ -->
    <g style="fill: #dc143c" transform="translate(319.239357 177.953576) scale(0.1 -0.1)">
     <use xlink:href="#DejaVuSans-Oblique-67" transform="translate(0 0.015625)"/>
     <use xlink:href="#DejaVuSans-Oblique-72" transform="translate(63.476562 0.015625)"/>
     <use xlink:href="#DejaVuSans-Oblique-61" transform="translate(104.589844 0.015625)"/>
     <use xlink:href="#DejaVuSans-Oblique-64" transform="translate(165.869141 0.015625)"/>
     <use xlink:href="#DejaVuSans-5f" transform="translate(229.345703 0.015625)"/>
     <use xlink:href="#DejaVuSans-Oblique-73" transform="translate(279.345703 0.015625)"/>
     <use xlink:href="#DejaVuSans-32" transform="translate(331.445312 0.015625)"/>
    </g>
   </g>
   <g id="text_27">
    <g id="patch_24">
     <path d="M 361.770184 287.409626 
L 373.770184 287.409626 
Q 375.210184 287.409626 375.210184 285.969626 
L 375.210184 274.355876 
Q 375.210184 272.915876 373.770184 272.915876 
L 361.770184 272.915876 
Q 360.330184 272.915876 360.330184 274.355876 
L 360.330184 285.969626 
Q 360.330184 287.409626 361.770184 287.409626 
z
" style="fill: #ffffff; opacity: 0.85"/>
    </g>
    <!-- $s_1$ -->
    <g transform="translate(361.770184 283.474001) scale(0.12 -0.12)">
     <use xlink:href="#DejaVuSans-Oblique-73"/>
     <use xlink:href="#DejaVuSans-31" transform="translate(52.099609 -16.40625) scale(0.7)"/>
    </g>
   </g>
   <g id="text_28">
    <g id="patch_25">
     <path d="M 341.391678 329.653712 
L 380.991678 329.653712 
Q 382.191678 329.653712 382.191678 328.453712 
L 382.191678 318.453712 
Q 382.191678 317.253712 380.991678 317.253712 
L 341.391678 317.253712 
Q 340.191678 317.253712 340.191678 318.453712 
L 340.191678 328.453712 
Q 340.191678 329.653712 341.391678 329.653712 
z
" style="fill: #ffffff; opacity: 0.85"/>
    </g>
    <!-- $grad\_s2$ -->
    <g style="fill: #dc143c" transform="translate(341.391678 326.053712) scale(0.1 -0.1)">
     <use xlink:href="#DejaVuSans-Oblique-67" transform="translate(0 0.015625)"/>
     <use xlink:href="#DejaVuSans-Oblique-72" transform="translate(63.476562 0.015625)"/>
     <use xlink:href="#DejaVuSans-Oblique-61" transform="translate(104.589844 0.015625)"/>
     <use xlink:href="#DejaVuSans-Oblique-64" transform="translate(165.869141 0.015625)"/>
     <use xlink:href="#DejaVuSans-5f" transform="translate(229.345703 0.015625)"/>
     <use xlink:href="#DejaVuSans-Oblique-73" transform="translate(279.345703 0.015625)"/>
     <use xlink:href="#DejaVuSans-32" transform="translate(331.445312 0.015625)"/>
    </g>
   </g>
   <g id="text_29">
    <g id="patch_26">
     <path d="M 525.222539 170.552933 
L 540.822539 170.552933 
Q 542.262539 170.552933 542.262539 169.112933 
L 542.262539 157.499183 
Q 542.262539 156.059183 540.822539 156.059183 
L 525.222539 156.059183 
Q 523.782539 156.059183 523.782539 157.499183 
L 523.782539 169.112933 
Q 523.782539 170.552933 525.222539 170.552933 
z
" style="fill: #ffffff; opacity: 0.85"/>
    </g>
    <!-- $w_0$ -->
    <g transform="translate(525.222539 166.617308) scale(0.12 -0.12)">
     <use xlink:href="#DejaVuSans-Oblique-77" transform="translate(0 0.3125)"/>
     <use xlink:href="#DejaVuSans-30" transform="translate(81.787109 -16.09375) scale(0.7)"/>
    </g>
   </g>
   <g id="text_30">
    <g id="patch_27">
     <path d="M 469.14287 167.293315 
L 503.04287 167.293315 
Q 504.24287 167.293315 504.24287 166.093315 
L 504.24287 156.093315 
Q 504.24287 154.893315 503.04287 154.893315 
L 469.14287 154.893315 
Q 467.94287 154.893315 467.94287 156.093315 
L 467.94287 166.093315 
Q 467.94287 167.293315 469.14287 167.293315 
z
" style="fill: #ffffff; opacity: 0.85"/>
    </g>
    <!-- $grad\_y$ -->
    <g style="fill: #dc143c" transform="translate(469.14287 163.693315) scale(0.1 -0.1)">
     <use xlink:href="#DejaVuSans-Oblique-67" transform="translate(0 0.015625)"/>
     <use xlink:href="#DejaVuSans-Oblique-72" transform="translate(63.476562 0.015625)"/>
     <use xlink:href="#DejaVuSans-Oblique-61" transform="translate(104.589844 0.015625)"/>
     <use xlink:href="#DejaVuSans-Oblique-64" transform="translate(165.869141 0.015625)"/>
     <use xlink:href="#DejaVuSans-5f" transform="translate(229.345703 0.015625)"/>
     <use xlink:href="#DejaVuSans-Oblique-79" transform="translate(279.345703 0.015625)"/>
    </g>
   </g>
   <g id="text_31">
    <g id="patch_28">
     <path d="M 515.746082 229.767731 
L 527.746082 229.767731 
Q 529.186082 229.767731 529.186082 228.327731 
L 529.186082 216.713981 
Q 529.186082 215.273981 527.746082 215.273981 
L 515.746082 215.273981 
Q 514.306082 215.273981 514.306082 216.713981 
L 514.306082 228.327731 
Q 514.306082 229.767731 515.746082 229.767731 
z
" style="fill: #ffffff; opacity: 0.85"/>
    </g>
    <!-- $s_2$ -->
    <g transform="translate(515.746082 225.832106) scale(0.12 -0.12)">
     <use xlink:href="#DejaVuSans-Oblique-73"/>
     <use xlink:href="#DejaVuSans-32" transform="translate(52.099609 -16.40625) scale(0.7)"/>
    </g>
   </g>
   <g id="text_32">
    <g id="patch_29">
     <path d="M 504.796082 259.100371 
L 538.696082 259.100371 
Q 539.896082 259.100371 539.896082 257.900371 
L 539.896082 247.900371 
Q 539.896082 246.700371 538.696082 246.700371 
L 504.796082 246.700371 
Q 503.596082 246.700371 503.596082 247.900371 
L 503.596082 257.900371 
Q 503.596082 259.100371 504.796082 259.100371 
z
" style="fill: #ffffff; opacity: 0.85"/>
    </g>
    <!-- $grad\_y$ -->
    <g style="fill: #dc143c" transform="translate(504.796082 255.500371) scale(0.1 -0.1)">
     <use xlink:href="#DejaVuSans-Oblique-67" transform="translate(0 0.015625)"/>
     <use xlink:href="#DejaVuSans-Oblique-72" transform="translate(63.476562 0.015625)"/>
     <use xlink:href="#DejaVuSans-Oblique-61" transform="translate(104.589844 0.015625)"/>
     <use xlink:href="#DejaVuSans-Oblique-64" transform="translate(165.869141 0.015625)"/>
     <use xlink:href="#DejaVuSans-5f" transform="translate(229.345703 0.015625)"/>
     <use xlink:href="#DejaVuSans-Oblique-79" transform="translate(279.345703 0.015625)"/>
    </g>
   </g>
   <g id="text_33">
    <g id="patch_30">
     <path d="M 649.47837 229.767731 
L 656.67837 229.767731 
Q 658.11837 229.767731 658.11837 228.327731 
L 658.11837 216.713981 
Q 658.11837 215.273981 656.67837 215.273981 
L 649.47837 215.273981 
Q 648.03837 215.273981 648.03837 216.713981 
L 648.03837 228.327731 
Q 648.03837 229.767731 649.47837 229.767731 
z
" style="fill: #ffffff; opacity: 0.85"/>
    </g>
    <!-- $y$ -->
    <g transform="translate(649.47837 225.807731) scale(0.12 -0.12)">
     <use xlink:href="#DejaVuSans-Oblique-79" transform="translate(0 0.3125)"/>
    </g>
   </g>
   <g id="text_34">
    <g id="patch_31">
     <path d="M 636.02837 259.100371 
L 670.12837 259.100371 
Q 671.32837 259.100371 671.32837 257.900371 
L 671.32837 247.900371 
Q 671.32837 246.700371 670.12837 246.700371 
L 636.02837 246.700371 
Q 634.82837 246.700371 634.82837 247.900371 
L 634.82837 257.900371 
Q 634.82837 259.100371 636.02837 259.100371 
z
" style="fill: #ffffff; opacity: 0.85"/>
    </g>
    <!-- $grad\_e$ -->
    <g style="fill: #dc143c" transform="translate(636.02837 255.500371) scale(0.1 -0.1)">
     <defs>
      <path id="DejaVuSans-Oblique-65" d="M 3078 2063 
Q 3088 2113 3092 2166 
Q 3097 2219 3097 2272 
Q 3097 2653 2873 2875 
Q 2650 3097 2266 3097 
Q 1838 3097 1509 2826 
Q 1181 2556 1013 2059 
L 3078 2063 
z
M 3578 1613 
L 903 1613 
Q 884 1494 878 1425 
Q 872 1356 872 1306 
Q 872 872 1139 634 
Q 1406 397 1894 397 
Q 2269 397 2603 481 
Q 2938 566 3225 728 
L 3116 159 
Q 2806 34 2476 -28 
Q 2147 -91 1806 -91 
Q 1078 -91 686 257 
Q 294 606 294 1247 
Q 294 1794 489 2264 
Q 684 2734 1063 3103 
Q 1306 3334 1642 3459 
Q 1978 3584 2356 3584 
Q 2950 3584 3301 3228 
Q 3653 2872 3653 2272 
Q 3653 2128 3634 1964 
Q 3616 1800 3578 1613 
z
" transform="scale(0.015625)"/>
     </defs>
     <use xlink:href="#DejaVuSans-Oblique-67" transform="translate(0 0.015625)"/>
     <use xlink:href="#DejaVuSans-Oblique-72" transform="translate(63.476562 0.015625)"/>
     <use xlink:href="#DejaVuSans-Oblique-61" transform="translate(104.589844 0.015625)"/>
     <use xlink:href="#DejaVuSans-Oblique-64" transform="translate(165.869141 0.015625)"/>
     <use xlink:href="#DejaVuSans-5f" transform="translate(229.345703 0.015625)"/>
     <use xlink:href="#DejaVuSans-Oblique-65" transform="translate(279.345703 0.015625)"/>
    </g>
   </g>
   <g id="text_35">
    <g id="patch_32">
     <path d="M 654.263361 314.040815 
L 673.943361 314.040815 
Q 675.383361 314.040815 675.383361 312.600815 
L 675.383361 300.987065 
Q 675.383361 299.547065 673.943361 299.547065 
L 654.263361 299.547065 
Q 652.823361 299.547065 652.823361 300.987065 
L 652.823361 312.600815 
Q 652.823361 314.040815 654.263361 314.040815 
z
" style="fill: #ffffff; opacity: 0.85"/>
    </g>
    <!-- $-\,d$ -->
    <g transform="translate(654.263361 310.10519) scale(0.12 -0.12)">
     <use xlink:href="#DejaVuSans-2212" transform="translate(0 0.015625)"/>
     <use xlink:href="#DejaVuSans-Oblique-64" transform="translate(100.024739 0.015625)"/>
    </g>
   </g>
   <g id="text_36">
    <g id="patch_33">
     <path d="M 773.501944 229.767731 
L 780.941944 229.767731 
Q 782.381944 229.767731 782.381944 228.327731 
L 782.381944 216.713981 
Q 782.381944 215.273981 780.941944 215.273981 
L 773.501944 215.273981 
Q 772.061944 215.273981 772.061944 216.713981 
L 772.061944 228.327731 
Q 772.061944 229.767731 773.501944 229.767731 
z
" style="fill: #ffffff; opacity: 0.85"/>
    </g>
    <!-- $e$ -->
    <g transform="translate(773.501944 225.832106) scale(0.12 -0.12)">
     <use xlink:href="#DejaVuSans-Oblique-65"/>
    </g>
   </g>
   <g id="text_37">
    <g id="patch_34">
     <path d="M 767.421944 258.939433 
L 787.021944 258.939433 
Q 788.221944 258.939433 788.221944 257.739433 
L 788.221944 248.061308 
Q 788.221944 246.861308 787.021944 246.861308 
L 767.421944 246.861308 
Q 766.221944 246.861308 766.221944 248.061308 
L 766.221944 257.739433 
Q 766.221944 258.939433 767.421944 258.939433 
z
" style="fill: #ffffff; opacity: 0.85"/>
    </g>
    <!-- $2 \cdot e$ -->
    <g style="fill: #dc143c" transform="translate(767.421944 255.659746) scale(0.1 -0.1)">
     <use xlink:href="#DejaVuSans-32" transform="translate(0 0.78125)"/>
     <use xlink:href="#DejaVuSans-22c5" transform="translate(83.105469 0.78125)"/>
     <use xlink:href="#DejaVuSans-Oblique-65" transform="translate(134.375 0.78125)"/>
    </g>
   </g>
   <g id="text_38">
    <g id="patch_35">
     <path d="M 884.181066 229.767731 
L 890.901066 229.767731 
Q 892.341066 229.767731 892.341066 228.327731 
L 892.341066 216.713981 
Q 892.341066 215.273981 890.901066 215.273981 
L 884.181066 215.273981 
Q 882.741066 215.273981 882.741066 216.713981 
L 882.741066 228.327731 
Q 882.741066 229.767731 884.181066 229.767731 
z
" style="fill: #ffffff; opacity: 0.85"/>
    </g>
    <!-- $L$ -->
    <g transform="translate(884.181066 225.832106) scale(0.12 -0.12)">
     <use xlink:href="#DejaVuSans-Oblique-4c" transform="translate(0 0.09375)"/>
    </g>
   </g>
   <g id="text_39">
    <g id="patch_36">
     <path d="M 861.441066 259.100371 
L 913.641066 259.100371 
Q 914.841066 259.100371 914.841066 257.900371 
L 914.841066 247.900371 
Q 914.841066 246.700371 913.641066 246.700371 
L 861.441066 246.700371 
Q 860.241066 246.700371 860.241066 247.900371 
L 860.241066 257.900371 
Q 860.241066 259.100371 861.441066 259.100371 
z
" style="fill: #ffffff; opacity: 0.85"/>
    </g>
    <!-- $grad\_L = 1$ -->
    <g style="fill: #dc143c" transform="translate(861.441066 255.500371) scale(0.1 -0.1)">
     <use xlink:href="#DejaVuSans-Oblique-67" transform="translate(0 0.015625)"/>
     <use xlink:href="#DejaVuSans-Oblique-72" transform="translate(63.476562 0.015625)"/>
     <use xlink:href="#DejaVuSans-Oblique-61" transform="translate(104.589844 0.015625)"/>
     <use xlink:href="#DejaVuSans-Oblique-64" transform="translate(165.869141 0.015625)"/>
     <use xlink:href="#DejaVuSans-5f" transform="translate(229.345703 0.015625)"/>
     <use xlink:href="#DejaVuSans-Oblique-4c" transform="translate(279.345703 0.015625)"/>
     <use xlink:href="#DejaVuSans-3d" transform="translate(354.541016 0.015625)"/>
     <use xlink:href="#DejaVuSans-31" transform="translate(457.8125 0.015625)"/>
    </g>
   </g>
   <g id="text_40">
    <g id="patch_37">
     <path d="M 665.641242 168.186735 
L 672.241242 168.186735 
Q 673.561242 168.186735 673.561242 166.866735 
L 673.561242 156.220798 
Q 673.561242 154.900798 672.241242 154.900798 
L 665.641242 154.900798 
Q 664.321242 154.900798 664.321242 156.220798 
L 664.321242 166.866735 
Q 664.321242 168.186735 665.641242 168.186735 
z
" style="fill: #ffffff; opacity: 0.85"/>
    </g>
    <!-- $y$ -->
    <g style="fill: #8a8a8a" transform="translate(665.641242 164.556735) scale(0.11 -0.11)">
     <use xlink:href="#DejaVuSans-Oblique-79" transform="translate(0 0.3125)"/>
    </g>
   </g>
   <g id="text_41">
    <g id="patch_38">
     <path d="M 762.520658 77.266249 
L 806.300658 77.266249 
Q 807.620658 77.266249 807.620658 75.946249 
L 807.620658 65.300311 
Q 807.620658 63.980311 806.300658 63.980311 
L 762.520658 63.980311 
Q 761.200658 63.980311 761.200658 65.300311 
L 761.200658 75.946249 
Q 761.200658 77.266249 762.520658 77.266249 
z
" style="fill: #ffffff; opacity: 0.85"/>
    </g>
    <!-- $nn(w,x)$ -->
    <g style="fill: #8a8a8a" transform="translate(762.520658 73.658592) scale(0.11 -0.11)">
     <use xlink:href="#DejaVuSans-Oblique-6e" transform="translate(0 0.125)"/>
     <use xlink:href="#DejaVuSans-Oblique-6e" transform="translate(63.378906 0.125)"/>
     <use xlink:href="#DejaVuSans-28" transform="translate(126.757812 0.125)"/>
     <use xlink:href="#DejaVuSans-Oblique-77" transform="translate(165.771484 0.125)"/>
     <use xlink:href="#DejaVuSans-2c" transform="translate(247.558594 0.125)"/>
     <use xlink:href="#DejaVuSans-Oblique-78" transform="translate(298.828125 0.125)"/>
     <use xlink:href="#DejaVuSans-29" transform="translate(358.007812 0.125)"/>
    </g>
   </g>
  </g>
 </g>
 <defs>
  <clipPath id="p6c5cd9122b">
   <rect x="7.2" y="35.94" width="1058.4" height="401.0096"/>
  </clipPath>
 </defs>
</svg>
